<svg width="343" height="229" viewBox="0 0 343 229" fill="none" xmlns="http://www.w3.org/2000/svg">
<rect width="343" height="229" rx="6" fill="white"/>
<path d="M29.9176 51V33.5455H40.8608V35.8125H32.5511V41.1307H40.2898V43.3892H32.5511V48.733H40.9631V51H29.9176ZM44.174 51V37.9091H46.62V40.0398H46.782C47.0547 39.3182 47.5007 38.7557 48.12 38.3523C48.7393 37.9432 49.4808 37.7386 50.3445 37.7386C51.2195 37.7386 51.9524 37.9432 52.5433 38.3523C53.1399 38.7614 53.5803 39.3239 53.8643 40.0398H54.0007C54.3132 39.3409 54.8104 38.7841 55.4922 38.3693C56.174 37.9489 56.9865 37.7386 57.9297 37.7386C59.1172 37.7386 60.0859 38.1108 60.8359 38.8551C61.5916 39.5994 61.9695 40.7216 61.9695 42.2216V51H59.4212V42.4602C59.4212 41.5739 59.1797 40.9318 58.6967 40.5341C58.2138 40.1364 57.6371 39.9375 56.9666 39.9375C56.1371 39.9375 55.4922 40.1932 55.032 40.7045C54.5717 41.2102 54.3416 41.8608 54.3416 42.6562V51H51.8018V42.2983C51.8018 41.5881 51.5803 41.017 51.1371 40.5852C50.6939 40.1534 50.1172 39.9375 49.407 39.9375C48.924 39.9375 48.478 40.0653 48.0689 40.321C47.6655 40.571 47.3388 40.9205 47.0888 41.3693C46.8445 41.8182 46.7223 42.3381 46.7223 42.929V51H44.174ZM65.5895 51V33.5455H68.1378V40.0312H68.2912C68.4389 39.7585 68.652 39.4432 68.9304 39.0852C69.2088 38.7273 69.5952 38.4148 70.0895 38.1477C70.5838 37.875 71.2372 37.7386 72.0497 37.7386C73.1065 37.7386 74.0497 38.0057 74.8793 38.5398C75.7088 39.0739 76.3594 39.8437 76.831 40.8494C77.3082 41.8551 77.5469 43.0653 77.5469 44.4801C77.5469 45.8949 77.3111 47.108 76.8395 48.1193C76.3679 49.125 75.7202 49.9006 74.8963 50.446C74.0724 50.9858 73.1321 51.2557 72.0753 51.2557C71.2798 51.2557 70.6293 51.1222 70.1236 50.8551C69.6236 50.5881 69.2315 50.2756 68.9474 49.9176C68.6634 49.5597 68.4446 49.2415 68.2912 48.9631H68.0781V51H65.5895ZM68.0866 44.4545C68.0866 45.375 68.2202 46.1818 68.4872 46.875C68.7543 47.5682 69.1406 48.1108 69.6463 48.5028C70.152 48.8892 70.7713 49.0824 71.5043 49.0824C72.2656 49.0824 72.902 48.8807 73.4134 48.4773C73.9247 48.0682 74.3111 47.5142 74.5724 46.8153C74.8395 46.1165 74.973 45.3295 74.973 44.4545C74.973 43.5909 74.8423 42.8153 74.581 42.1278C74.3253 41.4403 73.9389 40.8977 73.4219 40.5C72.9105 40.1023 72.2713 39.9034 71.5043 39.9034C70.7656 39.9034 70.1406 40.0937 69.6293 40.4744C69.1236 40.8551 68.7401 41.3864 68.4787 42.0682C68.2173 42.75 68.0866 43.5455 68.0866 44.4545ZM86.0504 51.2642C84.7607 51.2642 83.6499 50.9886 82.718 50.4375C81.7919 49.8807 81.076 49.0994 80.5703 48.0938C80.0703 47.0824 79.8203 45.8977 79.8203 44.5398C79.8203 43.1989 80.0703 42.017 80.5703 40.9943C81.076 39.9716 81.7805 39.1733 82.6839 38.5994C83.593 38.0256 84.6555 37.7386 85.8714 37.7386C86.6101 37.7386 87.326 37.8608 88.0192 38.1051C88.7124 38.3494 89.3345 38.733 89.8857 39.2557C90.4368 39.7784 90.8714 40.4574 91.1896 41.2926C91.5078 42.1222 91.6669 43.1307 91.6669 44.3182V45.2216H81.2607V43.3125H89.1697C89.1697 42.642 89.0334 42.0483 88.7607 41.5312C88.4879 41.0085 88.1044 40.5966 87.6101 40.2955C87.1214 39.9943 86.5476 39.8438 85.8885 39.8438C85.1726 39.8438 84.5476 40.0199 84.0135 40.3722C83.4851 40.7187 83.076 41.1733 82.7862 41.7358C82.5021 42.2926 82.3601 42.8977 82.3601 43.5511V45.0426C82.3601 45.9176 82.5135 46.6619 82.8203 47.2756C83.1328 47.8892 83.5675 48.358 84.1243 48.6818C84.6811 49 85.3317 49.1591 86.076 49.1591C86.5589 49.1591 86.9993 49.0909 87.397 48.9545C87.7947 48.8125 88.1385 48.6023 88.4283 48.3239C88.718 48.0455 88.9396 47.7017 89.093 47.2926L91.505 47.7273C91.3118 48.4375 90.9652 49.0597 90.4652 49.5938C89.9709 50.1222 89.3487 50.5341 88.5987 50.8295C87.8544 51.1193 87.005 51.2642 86.0504 51.2642ZM99.3949 51.2557C98.3381 51.2557 97.3949 50.9858 96.5653 50.446C95.7415 49.9006 95.0938 49.125 94.6222 48.1193C94.1563 47.108 93.9233 45.8949 93.9233 44.4801C93.9233 43.0653 94.1591 41.8551 94.6307 40.8494C95.108 39.8437 95.7614 39.0739 96.5909 38.5398C97.4205 38.0057 98.3608 37.7386 99.4119 37.7386C100.224 37.7386 100.878 37.875 101.372 38.1477C101.872 38.4148 102.259 38.7273 102.531 39.0852C102.81 39.4432 103.026 39.7585 103.179 40.0312H103.332V33.5455H105.881V51H103.392V48.9631H103.179C103.026 49.2415 102.804 49.5597 102.514 49.9176C102.23 50.2756 101.838 50.5881 101.338 50.8551C100.838 51.1222 100.19 51.2557 99.3949 51.2557ZM99.9574 49.0824C100.69 49.0824 101.31 48.8892 101.815 48.5028C102.327 48.1108 102.713 47.5682 102.974 46.875C103.241 46.1818 103.375 45.375 103.375 44.4545C103.375 43.5455 103.244 42.75 102.983 42.0682C102.722 41.3864 102.338 40.8551 101.832 40.4744C101.327 40.0937 100.702 39.9034 99.9574 39.9034C99.1903 39.9034 98.5511 40.1023 98.0398 40.5C97.5284 40.8977 97.142 41.4403 96.8807 42.1278C96.625 42.8153 96.4972 43.5909 96.4972 44.4545C96.4972 45.3295 96.6278 46.1165 96.8892 46.8153C97.1506 47.5142 97.5369 48.0682 98.0483 48.4773C98.5653 48.8807 99.2017 49.0824 99.9574 49.0824ZM114.418 51.2557C113.362 51.2557 112.418 50.9858 111.589 50.446C110.765 49.9006 110.117 49.125 109.646 48.1193C109.18 47.108 108.947 45.8949 108.947 44.4801C108.947 43.0653 109.183 41.8551 109.654 40.8494C110.131 39.8437 110.785 39.0739 111.614 38.5398C112.444 38.0057 113.384 37.7386 114.435 37.7386C115.248 37.7386 115.901 37.875 116.396 38.1477C116.896 38.4148 117.282 38.7273 117.555 39.0852C117.833 39.4432 118.049 39.7585 118.202 40.0312H118.356V33.5455H120.904V51H118.415V48.9631H118.202C118.049 49.2415 117.827 49.5597 117.538 49.9176C117.254 50.2756 116.862 50.5881 116.362 50.8551C115.862 51.1222 115.214 51.2557 114.418 51.2557ZM114.981 49.0824C115.714 49.0824 116.333 48.8892 116.839 48.5028C117.35 48.1108 117.737 47.5682 117.998 46.875C118.265 46.1818 118.398 45.375 118.398 44.4545C118.398 43.5455 118.268 42.75 118.006 42.0682C117.745 41.3864 117.362 40.8551 116.856 40.4744C116.35 40.0937 115.725 39.9034 114.981 39.9034C114.214 39.9034 113.575 40.1023 113.063 40.5C112.552 40.8977 112.165 41.4403 111.904 42.1278C111.648 42.8153 111.521 43.5909 111.521 44.4545C111.521 45.3295 111.651 46.1165 111.913 46.8153C112.174 47.5142 112.56 48.0682 113.072 48.4773C113.589 48.8807 114.225 49.0824 114.981 49.0824ZM130.183 51.2642C128.893 51.2642 127.783 50.9886 126.851 50.4375C125.925 49.8807 125.209 49.0994 124.703 48.0938C124.203 47.0824 123.953 45.8977 123.953 44.5398C123.953 43.1989 124.203 42.017 124.703 40.9943C125.209 39.9716 125.913 39.1733 126.817 38.5994C127.726 38.0256 128.788 37.7386 130.004 37.7386C130.743 37.7386 131.459 37.8608 132.152 38.1051C132.845 38.3494 133.467 38.733 134.018 39.2557C134.57 39.7784 135.004 40.4574 135.322 41.2926C135.641 42.1222 135.8 43.1307 135.8 44.3182V45.2216H125.393V43.3125H133.303C133.303 42.642 133.166 42.0483 132.893 41.5312C132.621 41.0085 132.237 40.5966 131.743 40.2955C131.254 39.9943 130.68 39.8438 130.021 39.8438C129.305 39.8438 128.68 40.0199 128.146 40.3722C127.618 40.7187 127.209 41.1733 126.919 41.7358C126.635 42.2926 126.493 42.8977 126.493 43.5511V45.0426C126.493 45.9176 126.646 46.6619 126.953 47.2756C127.266 47.8892 127.7 48.358 128.257 48.6818C128.814 49 129.464 49.1591 130.209 49.1591C130.692 49.1591 131.132 49.0909 131.53 48.9545C131.928 48.8125 132.271 48.6023 132.561 48.3239C132.851 48.0455 133.072 47.7017 133.226 47.2926L135.638 47.7273C135.445 48.4375 135.098 49.0597 134.598 49.5938C134.104 50.1222 133.482 50.5341 132.732 50.8295C131.987 51.1193 131.138 51.2642 130.183 51.2642ZM143.528 51.2557C142.471 51.2557 141.528 50.9858 140.698 50.446C139.874 49.9006 139.227 49.125 138.755 48.1193C138.289 47.108 138.056 45.8949 138.056 44.4801C138.056 43.0653 138.292 41.8551 138.763 40.8494C139.241 39.8437 139.894 39.0739 140.724 38.5398C141.553 38.0057 142.494 37.7386 143.545 37.7386C144.357 37.7386 145.011 37.875 145.505 38.1477C146.005 38.4148 146.391 38.7273 146.664 39.0852C146.942 39.4432 147.158 39.7585 147.312 40.0312H147.465V33.5455H150.013V51H147.525V48.9631H147.312C147.158 49.2415 146.937 49.5597 146.647 49.9176C146.363 50.2756 145.971 50.5881 145.471 50.8551C144.971 51.1222 144.323 51.2557 143.528 51.2557ZM144.09 49.0824C144.823 49.0824 145.442 48.8892 145.948 48.5028C146.46 48.1108 146.846 47.5682 147.107 46.875C147.374 46.1818 147.508 45.375 147.508 44.4545C147.508 43.5455 147.377 42.75 147.116 42.0682C146.854 41.3864 146.471 40.8551 145.965 40.4744C145.46 40.0937 144.835 39.9034 144.09 39.9034C143.323 39.9034 142.684 40.1023 142.173 40.5C141.661 40.8977 141.275 41.4403 141.013 42.1278C140.758 42.8153 140.63 43.5909 140.63 44.4545C140.63 45.3295 140.761 46.1165 141.022 46.8153C141.283 47.5142 141.67 48.0682 142.181 48.4773C142.698 48.8807 143.335 49.0824 144.09 49.0824ZM161.681 51H158.886L165.167 33.5455H168.21L174.491 51H171.695L166.761 36.7159H166.624L161.681 51ZM162.15 44.1648H171.218V46.3807H162.15V44.1648ZM182.11 51.2642C180.843 51.2642 179.752 50.9773 178.837 50.4034C177.928 49.8239 177.229 49.0256 176.741 48.0085C176.252 46.9915 176.008 45.8267 176.008 44.5142C176.008 43.1847 176.258 42.0114 176.758 40.9943C177.258 39.9716 177.962 39.1733 178.871 38.5994C179.781 38.0256 180.852 37.7386 182.085 37.7386C183.079 37.7386 183.965 37.9233 184.744 38.2926C185.522 38.6562 186.15 39.1676 186.627 39.8267C187.11 40.4858 187.397 41.2557 187.488 42.1364H185.008C184.871 41.5227 184.559 40.9943 184.07 40.5511C183.587 40.108 182.94 39.8864 182.127 39.8864C181.417 39.8864 180.795 40.0739 180.261 40.4489C179.732 40.8182 179.32 41.3466 179.025 42.0341C178.729 42.7159 178.582 43.5227 178.582 44.4545C178.582 45.4091 178.727 46.233 179.016 46.9261C179.306 47.6193 179.715 48.1562 180.244 48.5369C180.778 48.9176 181.406 49.108 182.127 49.108C182.61 49.108 183.048 49.0199 183.44 48.8438C183.837 48.6619 184.17 48.4034 184.437 48.0682C184.71 47.733 184.9 47.3295 185.008 46.858H187.488C187.397 47.7045 187.121 48.4602 186.661 49.125C186.201 49.7898 185.585 50.3125 184.812 50.6932C184.045 51.0739 183.144 51.2642 182.11 51.2642ZM196.324 37.9091V39.9545H189.173V37.9091H196.324ZM191.091 34.7727H193.639V47.1562C193.639 47.6506 193.713 48.0227 193.861 48.2727C194.009 48.517 194.199 48.6847 194.432 48.7756C194.67 48.8608 194.929 48.9034 195.207 48.9034C195.412 48.9034 195.591 48.8892 195.744 48.8608C195.898 48.8324 196.017 48.8097 196.102 48.7926L196.562 50.8977C196.415 50.9545 196.205 51.0114 195.932 51.0682C195.659 51.1307 195.318 51.1648 194.909 51.1705C194.239 51.1818 193.614 51.0625 193.034 50.8125C192.455 50.5625 191.986 50.1761 191.628 49.6534C191.27 49.1307 191.091 48.4744 191.091 47.6847V34.7727ZM199.143 51V37.9091H201.691V51H199.143ZM200.43 35.8892C199.987 35.8892 199.606 35.7415 199.288 35.446C198.975 35.1449 198.819 34.7869 198.819 34.3722C198.819 33.9517 198.975 33.5937 199.288 33.2983C199.606 32.9972 199.987 32.8466 200.43 32.8466C200.873 32.8466 201.251 32.9972 201.563 33.2983C201.881 33.5937 202.04 33.9517 202.04 34.3722C202.04 34.7869 201.881 35.1449 201.563 35.446C201.251 35.7415 200.873 35.8892 200.43 35.8892ZM210.634 51.2642C209.406 51.2642 208.335 50.983 207.42 50.4205C206.506 49.858 205.795 49.071 205.29 48.0597C204.784 47.0483 204.531 45.8665 204.531 44.5142C204.531 43.1562 204.784 41.9687 205.29 40.9517C205.795 39.9347 206.506 39.1449 207.42 38.5824C208.335 38.0199 209.406 37.7386 210.634 37.7386C211.861 37.7386 212.932 38.0199 213.847 38.5824C214.761 39.1449 215.472 39.9347 215.977 40.9517C216.483 41.9687 216.736 43.1562 216.736 44.5142C216.736 45.8665 216.483 47.0483 215.977 48.0597C215.472 49.071 214.761 49.858 213.847 50.4205C212.932 50.983 211.861 51.2642 210.634 51.2642ZM210.642 49.125C211.438 49.125 212.097 48.9148 212.619 48.4943C213.142 48.0739 213.528 47.5142 213.778 46.8153C214.034 46.1165 214.162 45.3466 214.162 44.5057C214.162 43.6705 214.034 42.9034 213.778 42.2045C213.528 41.5 213.142 40.9347 212.619 40.5085C212.097 40.0824 211.438 39.8693 210.642 39.8693C209.841 39.8693 209.176 40.0824 208.648 40.5085C208.125 40.9347 207.736 41.5 207.48 42.2045C207.23 42.9034 207.105 43.6705 207.105 44.5057C207.105 45.3466 207.23 46.1165 207.48 46.8153C207.736 47.5142 208.125 48.0739 208.648 48.4943C209.176 48.9148 209.841 49.125 210.642 49.125ZM222.129 43.2273V51H219.58V37.9091H222.026V40.0398H222.188C222.489 39.3466 222.961 38.7898 223.603 38.3693C224.251 37.9489 225.066 37.7386 226.049 37.7386C226.941 37.7386 227.722 37.9261 228.393 38.3011C229.063 38.6705 229.583 39.2216 229.952 39.9545C230.322 40.6875 230.506 41.5937 230.506 42.6733V51H227.958V42.9801C227.958 42.0312 227.711 41.2898 227.217 40.7557C226.722 40.2159 226.043 39.946 225.18 39.946C224.589 39.946 224.063 40.0739 223.603 40.3295C223.148 40.5852 222.788 40.9602 222.521 41.4545C222.259 41.9432 222.129 42.5341 222.129 43.2273ZM243.734 41.1051L241.424 41.5142C241.327 41.2187 241.174 40.9375 240.964 40.6705C240.759 40.4034 240.481 40.1847 240.129 40.0142C239.776 39.8437 239.336 39.7585 238.808 39.7585C238.086 39.7585 237.484 39.9205 237.001 40.2443C236.518 40.5625 236.276 40.9744 236.276 41.4801C236.276 41.9176 236.438 42.2699 236.762 42.5369C237.086 42.804 237.609 43.0227 238.33 43.1932L240.41 43.6705C241.614 43.9489 242.512 44.3778 243.103 44.9574C243.694 45.5369 243.989 46.2898 243.989 47.2159C243.989 48 243.762 48.6989 243.308 49.3125C242.859 49.9205 242.231 50.3977 241.424 50.7443C240.623 51.0909 239.694 51.2642 238.637 51.2642C237.171 51.2642 235.975 50.9517 235.049 50.3267C234.123 49.696 233.555 48.8011 233.344 47.642L235.808 47.267C235.961 47.9091 236.276 48.3949 236.754 48.7244C237.231 49.0483 237.853 49.2102 238.62 49.2102C239.455 49.2102 240.123 49.0369 240.623 48.6903C241.123 48.3381 241.373 47.9091 241.373 47.4034C241.373 46.9943 241.219 46.6506 240.913 46.3722C240.612 46.0937 240.148 45.8835 239.523 45.7415L237.308 45.2557C236.086 44.9773 235.183 44.5341 234.597 43.9261C234.018 43.3182 233.728 42.5483 233.728 41.6165C233.728 40.8437 233.944 40.1676 234.376 39.5881C234.808 39.0085 235.404 38.5568 236.165 38.233C236.927 37.9034 237.799 37.7386 238.782 37.7386C240.197 37.7386 241.31 38.0455 242.123 38.6591C242.935 39.267 243.472 40.0824 243.734 41.1051Z" fill="#94A3B8"/>
<rect x="28" y="96" width="229" height="91" rx="4" fill="#EBBFFF"/>
<rect x="46" y="80" width="219" height="87" rx="11" fill="#F4DCFF"/>
<rect x="68" y="95" width="53" height="53" rx="4" fill="#FBF2FF"/>
<rect x="128" y="96" width="92" height="6" fill="white" fill-opacity="0.68"/>
<rect x="128" y="106" width="50" height="6" fill="white" fill-opacity="0.29"/>
<rect x="185" y="106" width="70" height="6" fill="white" fill-opacity="0.29"/>
<rect x="128" y="116" width="127" height="6" fill="white" fill-opacity="0.29"/>
<g clip-path="url(#clip0_72_209)">
<path d="M94.9851 105C95.5618 113.941 102.839 121.067 111.97 121.631C102.839 122.196 95.5618 129.322 94.9851 138.263C94.4085 129.322 87.1311 122.196 78 121.631C87.1311 121.067 94.4085 113.941 94.9851 105Z" fill="#5F49E9"/>
</g>
<defs>
<clipPath id="clip0_72_209">
<rect width="33.9702" height="33.2625" fill="white" transform="translate(78 105)"/>
</clipPath>
</defs>
</svg>
