<svg width="888" height="556" viewBox="0 0 888 556" fill="none" xmlns="http://www.w3.org/2000/svg">
<mask id="path-1-inside-1_156_684" fill="white">
<path d="M444 42.4771L499.5 74.5395L444 106.602L388.5 74.5396L444 42.4771Z"/>
<path d="M499.5 74.5395L555 106.602L499.5 138.665L444 106.602L499.5 74.5395Z"/>
<path d="M555 106.602L610.5 138.665L555 170.727L499.5 138.665L555 106.602Z"/>
<path d="M610.5 138.665L666 170.727L610.5 202.79L555 170.727L610.5 138.665Z"/>
<path d="M666 170.727L721.5 202.79L666 234.852L610.5 202.79L666 170.727Z"/>
<path d="M721.5 202.79L777 234.852L721.5 266.915L666 234.852L721.5 202.79Z"/>
<path d="M777 234.852L832.5 266.915L777 298.977L721.5 266.915L777 234.852Z"/>
<path d="M832.5 266.915L888 298.977L832.5 331.04L777 298.977L832.5 266.915Z"/>
<path d="M388.5 74.5396L444 106.602L388.5 138.665L333 106.602L388.5 74.5396Z"/>
<path d="M444 106.602L499.5 138.665L444 170.727L388.5 138.665L444 106.602Z"/>
<path d="M499.5 138.665L555 170.727L499.5 202.79L444 170.727L499.5 138.665Z"/>
<path d="M555 170.727L610.5 202.79L555 234.852L499.5 202.79L555 170.727Z"/>
<path d="M610.5 202.79L666 234.852L610.5 266.915L555 234.852L610.5 202.79Z"/>
<path d="M666 234.852L721.5 266.915L666 298.977L610.5 266.915L666 234.852Z"/>
<path d="M721.5 266.915L777 298.977L721.5 331.04L666 298.977L721.5 266.915Z"/>
<path d="M777 298.977L832.5 331.04L777 363.102L721.5 331.04L777 298.977Z"/>
<path d="M333 106.602L388.5 138.665L333 170.727L277.5 138.665L333 106.602Z"/>
<path d="M388.5 138.665L444 170.727L388.5 202.79L333 170.727L388.5 138.665Z"/>
<path d="M444 170.727L499.5 202.79L444 234.852L388.5 202.79L444 170.727Z"/>
<path d="M499.5 202.79L555 234.852L499.5 266.915L444 234.852L499.5 202.79Z"/>
<path d="M555 234.852L610.5 266.915L555 298.977L499.5 266.915L555 234.852Z"/>
<path d="M610.5 266.915L666 298.977L610.5 331.04L555 298.977L610.5 266.915Z"/>
<path d="M666 298.977L721.5 331.04L666 363.102L610.5 331.04L666 298.977Z"/>
<path d="M721.5 331.04L777 363.102L721.5 395.165L666 363.102L721.5 331.04Z"/>
<path d="M277.5 138.665L333 170.727L277.5 202.79L222 170.727L277.5 138.665Z"/>
<path d="M333 170.727L388.5 202.79L333 234.852L277.5 202.79L333 170.727Z"/>
<path d="M388.5 202.79L444 234.852L388.5 266.915L333 234.852L388.5 202.79Z"/>
<path d="M444 234.852L499.5 266.915L444 298.977L388.5 266.915L444 234.852Z"/>
<path d="M499.5 266.915L555 298.977L499.5 331.04L444 298.977L499.5 266.915Z"/>
<path d="M555 298.977L610.5 331.04L555 363.102L499.5 331.04L555 298.977Z"/>
<path d="M610.5 331.04L666 363.102L610.5 395.165L555 363.102L610.5 331.04Z"/>
<path d="M666 363.102L721.5 395.165L666 427.227L610.5 395.165L666 363.102Z"/>
<path d="M222 170.727L277.5 202.79L222 234.852L166.5 202.79L222 170.727Z"/>
<path d="M277.5 202.79L333 234.852L277.5 266.915L222 234.852L277.5 202.79Z"/>
<path d="M333 234.852L388.5 266.915L333 298.977L277.5 266.915L333 234.852Z"/>
<path d="M388.5 266.915L444 298.977L388.5 331.04L333 298.977L388.5 266.915Z"/>
<path d="M444 298.977L499.5 331.04L444 363.102L388.5 331.04L444 298.977Z"/>
<path d="M499.5 331.04L555 363.102L499.5 395.165L444 363.102L499.5 331.04Z"/>
<path d="M555 363.102L610.5 395.165L555 427.227L499.5 395.165L555 363.102Z"/>
<path d="M610.5 395.165L666 427.227L610.5 459.29L555 427.227L610.5 395.165Z"/>
<path d="M166.5 202.79L222 234.852L166.5 266.915L111 234.852L166.5 202.79Z"/>
<path d="M222 234.852L277.5 266.915L222 298.977L166.5 266.915L222 234.852Z"/>
<path d="M277.5 266.915L333 298.977L277.5 331.04L222 298.977L277.5 266.915Z"/>
<path d="M333 298.977L388.5 331.04L333 363.102L277.5 331.04L333 298.977Z"/>
<path d="M388.5 331.04L444 363.102L388.5 395.165L333 363.102L388.5 331.04Z"/>
<path d="M444 363.102L499.5 395.165L444 427.227L388.5 395.165L444 363.102Z"/>
<path d="M499.5 395.165L555 427.227L499.5 459.29L444 427.227L499.5 395.165Z"/>
<path d="M555 427.227L610.5 459.29L555 491.352L499.5 459.29L555 427.227Z"/>
<path d="M111 234.852L166.5 266.915L111 298.977L55.5 266.915L111 234.852Z"/>
<path d="M166.5 266.915L222 298.977L166.5 331.04L111 298.977L166.5 266.915Z"/>
<path d="M222 298.977L277.5 331.04L222 363.102L166.5 331.04L222 298.977Z"/>
<path d="M277.5 331.04L333 363.102L277.5 395.165L222 363.102L277.5 331.04Z"/>
<path d="M333 363.102L388.5 395.165L333 427.227L277.5 395.165L333 363.102Z"/>
<path d="M388.5 395.165L444 427.227L388.5 459.29L333 427.227L388.5 395.165Z"/>
<path d="M444 427.227L499.5 459.29L444 491.352L388.5 459.29L444 427.227Z"/>
<path d="M499.5 459.29L555 491.352L499.5 523.415L444 491.352L499.5 459.29Z"/>
<path d="M55.5 266.915L111 298.977L55.5 331.04L0 298.977L55.5 266.915Z"/>
<path d="M111 298.977L166.5 331.04L111 363.102L55.5 331.04L111 298.977Z"/>
<path d="M166.5 331.04L222 363.102L166.5 395.165L111 363.102L166.5 331.04Z"/>
<path d="M222 363.102L277.5 395.165L222 427.227L166.5 395.165L222 363.102Z"/>
<path d="M277.5 395.165L333 427.227L277.5 459.29L222 427.227L277.5 395.165Z"/>
<path d="M333 427.227L388.5 459.29L333 491.352L277.5 459.29L333 427.227Z"/>
<path d="M388.5 459.29L444 491.352L388.5 523.415L333 491.352L388.5 459.29Z"/>
<path d="M444 491.352L499.5 523.415L444 555.477L388.5 523.415L444 491.352Z"/>
</mask>
<path d="M499.25 74.1066L443.75 106.169L444.25 107.035L499.75 74.9725L499.25 74.1066ZM444.25 106.169L388.75 74.1066L388.25 74.9725L443.75 107.035L444.25 106.169ZM554.75 106.169L499.25 138.232L499.75 139.097L555.25 107.035L554.75 106.169ZM499.75 138.232L444.25 106.169L443.75 107.035L499.25 139.097L499.75 138.232ZM610.25 138.232L554.75 170.294L555.25 171.16L610.75 139.097L610.25 138.232ZM555.25 170.294L499.75 138.232L499.25 139.097L554.75 171.16L555.25 170.294ZM665.75 170.294L610.25 202.357L610.75 203.222L666.25 171.16L665.75 170.294ZM610.75 202.357L555.25 170.294L554.75 171.16L610.25 203.222L610.75 202.357ZM721.25 202.357L665.75 234.419L666.25 235.285L721.75 203.222L721.25 202.357ZM666.25 234.419L610.75 202.357L610.25 203.222L665.75 235.285L666.25 234.419ZM776.75 234.419L721.25 266.482L721.75 267.347L777.25 235.285L776.75 234.419ZM721.75 266.482L666.25 234.419L665.75 235.285L721.25 267.347L721.75 266.482ZM832.25 266.482L776.75 298.544L777.25 299.41L832.75 267.347L832.25 266.482ZM777.25 298.544L721.75 266.482L721.25 267.347L776.75 299.41L777.25 298.544ZM832.75 330.607L777.25 298.544L776.75 299.41L832.25 331.472L832.75 330.607ZM443.75 106.169L388.25 138.232L388.75 139.098L444.25 107.035L443.75 106.169ZM388.75 138.232L333.25 106.169L332.75 107.035L388.25 139.098L388.75 138.232ZM499.25 138.232L443.75 170.294L444.25 171.16L499.75 139.097L499.25 138.232ZM444.25 170.294L388.75 138.232L388.25 139.098L443.75 171.16L444.25 170.294ZM554.75 170.294L499.25 202.357L499.75 203.222L555.25 171.16L554.75 170.294ZM499.75 202.357L444.25 170.294L443.75 171.16L499.25 203.222L499.75 202.357ZM610.25 202.357L554.75 234.419L555.25 235.285L610.75 203.222L610.25 202.357ZM555.25 234.419L499.75 202.357L499.25 203.222L554.75 235.285L555.25 234.419ZM665.75 234.419L610.25 266.482L610.75 267.347L666.25 235.285L665.75 234.419ZM610.75 266.482L555.25 234.419L554.75 235.285L610.25 267.347L610.75 266.482ZM721.25 266.482L665.75 298.544L666.25 299.41L721.75 267.347L721.25 266.482ZM666.25 298.544L610.75 266.482L610.25 267.347L665.75 299.41L666.25 298.544ZM776.75 298.544L721.25 330.607L721.75 331.472L777.25 299.41L776.75 298.544ZM721.75 330.607L666.25 298.544L665.75 299.41L721.25 331.472L721.75 330.607ZM777.25 362.669L721.75 330.607L721.25 331.472L776.75 363.535L777.25 362.669ZM388.25 138.232L332.75 170.294L333.25 171.16L388.75 139.098L388.25 138.232ZM333.25 170.294L277.75 138.232L277.25 139.098L332.75 171.16L333.25 170.294ZM443.75 170.294L388.25 202.357L388.75 203.222L444.25 171.16L443.75 170.294ZM388.75 202.357L333.25 170.294L332.75 171.16L388.25 203.222L388.75 202.357ZM499.25 202.357L443.75 234.419L444.25 235.285L499.75 203.222L499.25 202.357ZM444.25 234.419L388.75 202.357L388.25 203.222L443.75 235.285L444.25 234.419ZM554.75 234.419L499.25 266.482L499.75 267.348L555.25 235.285L554.75 234.419ZM499.75 266.482L444.25 234.419L443.75 235.285L499.25 267.348L499.75 266.482ZM610.25 266.482L554.75 298.544L555.25 299.41L610.75 267.347L610.25 266.482ZM555.25 298.544L499.75 266.482L499.25 267.348L554.75 299.41L555.25 298.544ZM665.75 298.544L610.25 330.607L610.75 331.473L666.25 299.41L665.75 298.544ZM610.75 330.607L555.25 298.544L554.75 299.41L610.25 331.473L610.75 330.607ZM721.25 330.607L665.75 362.669L666.25 363.535L721.75 331.472L721.25 330.607ZM666.25 362.669L610.75 330.607L610.25 331.473L665.75 363.535L666.25 362.669ZM721.75 394.732L666.25 362.669L665.75 363.535L721.25 395.597L721.75 394.732ZM332.75 170.294L277.25 202.357L277.75 203.223L333.25 171.16L332.75 170.294ZM277.75 202.357L222.25 170.294L221.75 171.16L277.25 203.223L277.75 202.357ZM388.25 202.357L332.75 234.419L333.25 235.285L388.75 203.222L388.25 202.357ZM333.25 234.419L277.75 202.357L277.25 203.223L332.75 235.285L333.25 234.419ZM443.75 234.419L388.25 266.482L388.75 267.348L444.25 235.285L443.75 234.419ZM388.75 266.482L333.25 234.419L332.75 235.285L388.25 267.348L388.75 266.482ZM499.25 266.482L443.75 298.544L444.25 299.41L499.75 267.348L499.25 266.482ZM444.25 298.544L388.75 266.482L388.25 267.348L443.75 299.41L444.25 298.544ZM554.75 298.544L499.25 330.607L499.75 331.473L555.25 299.41L554.75 298.544ZM499.75 330.607L444.25 298.544L443.75 299.41L499.25 331.473L499.75 330.607ZM610.25 330.607L554.75 362.669L555.25 363.535L610.75 331.473L610.25 330.607ZM555.25 362.669L499.75 330.607L499.25 331.473L554.75 363.535L555.25 362.669ZM665.75 362.669L610.25 394.732L610.75 395.597L666.25 363.535L665.75 362.669ZM610.75 394.732L555.25 362.669L554.75 363.535L610.25 395.597L610.75 394.732ZM666.25 426.794L610.75 394.732L610.25 395.597L665.75 427.66L666.25 426.794ZM277.25 202.357L221.75 234.419L222.25 235.285L277.75 203.223L277.25 202.357ZM222.25 234.419L166.75 202.357L166.25 203.223L221.75 235.285L222.25 234.419ZM332.75 234.419L277.25 266.482L277.75 267.348L333.25 235.285L332.75 234.419ZM277.75 266.482L222.25 234.419L221.75 235.285L277.25 267.348L277.75 266.482ZM388.25 266.482L332.75 298.544L333.25 299.41L388.75 267.348L388.25 266.482ZM333.25 298.544L277.75 266.482L277.25 267.348L332.75 299.41L333.25 298.544ZM443.75 298.544L388.25 330.607L388.75 331.473L444.25 299.41L443.75 298.544ZM388.75 330.607L333.25 298.544L332.75 299.41L388.25 331.473L388.75 330.607ZM499.25 330.607L443.75 362.669L444.25 363.535L499.75 331.473L499.25 330.607ZM444.25 362.669L388.75 330.607L388.25 331.473L443.75 363.535L444.25 362.669ZM554.75 362.669L499.25 394.732L499.75 395.597L555.25 363.535L554.75 362.669ZM499.75 394.732L444.25 362.669L443.75 363.535L499.25 395.597L499.75 394.732ZM610.25 394.732L554.75 426.794L555.25 427.66L610.75 395.597L610.25 394.732ZM555.25 426.794L499.75 394.732L499.25 395.597L554.75 427.66L555.25 426.794ZM610.75 458.857L555.25 426.794L554.75 427.66L610.25 459.722L610.75 458.857ZM221.75 234.419L166.25 266.482L166.75 267.348L222.25 235.285L221.75 234.419ZM166.75 266.482L111.25 234.419L110.75 235.285L166.25 267.348L166.75 266.482ZM277.25 266.482L221.75 298.544L222.25 299.41L277.75 267.348L277.25 266.482ZM222.25 298.544L166.75 266.482L166.25 267.348L221.75 299.41L222.25 298.544ZM332.75 298.544L277.25 330.607L277.75 331.473L333.25 299.41L332.75 298.544ZM277.75 330.607L222.25 298.544L221.75 299.41L277.25 331.473L277.75 330.607ZM388.25 330.607L332.75 362.669L333.25 363.535L388.75 331.473L388.25 330.607ZM333.25 362.669L277.75 330.607L277.25 331.473L332.75 363.535L333.25 362.669ZM443.75 362.669L388.25 394.732L388.75 395.598L444.25 363.535L443.75 362.669ZM388.75 394.732L333.25 362.669L332.75 363.535L388.25 395.598L388.75 394.732ZM499.25 394.732L443.75 426.794L444.25 427.66L499.75 395.597L499.25 394.732ZM444.25 426.794L388.75 394.732L388.25 395.598L443.75 427.66L444.25 426.794ZM554.75 426.794L499.25 458.857L499.75 459.723L555.25 427.66L554.75 426.794ZM499.75 458.857L444.25 426.794L443.75 427.66L499.25 459.723L499.75 458.857ZM555.25 490.919L499.75 458.857L499.25 459.723L554.75 491.785L555.25 490.919ZM166.25 266.482L110.75 298.544L111.25 299.41L166.75 267.348L166.25 266.482ZM111.25 298.544L55.7501 266.482L55.2499 267.348L110.75 299.41L111.25 298.544ZM221.75 298.544L166.25 330.607L166.75 331.473L222.25 299.41L221.75 298.544ZM166.75 330.607L111.25 298.544L110.75 299.41L166.25 331.473L166.75 330.607ZM277.25 330.607L221.75 362.669L222.25 363.535L277.75 331.473L277.25 330.607ZM222.25 362.669L166.75 330.607L166.25 331.473L221.75 363.535L222.25 362.669ZM332.75 362.669L277.25 394.732L277.75 395.598L333.25 363.535L332.75 362.669ZM277.75 394.732L222.25 362.669L221.75 363.535L277.25 395.598L277.75 394.732ZM388.25 394.732L332.75 426.794L333.25 427.66L388.75 395.598L388.25 394.732ZM333.25 426.794L277.75 394.732L277.25 395.598L332.75 427.66L333.25 426.794ZM443.75 426.794L388.25 458.857L388.75 459.723L444.25 427.66L443.75 426.794ZM388.75 458.857L333.25 426.794L332.75 427.66L388.25 459.723L388.75 458.857ZM499.25 458.857L443.75 490.919L444.25 491.785L499.75 459.723L499.25 458.857ZM444.25 490.919L388.75 458.857L388.25 459.723L443.75 491.785L444.25 490.919ZM499.75 522.982L444.25 490.919L443.75 491.785L499.25 523.848L499.75 522.982ZM110.75 298.544L55.2499 330.607L55.7501 331.473L111.25 299.41L110.75 298.544ZM166.25 330.607L110.75 362.669L111.25 363.535L166.75 331.473L166.25 330.607ZM221.75 362.669L166.25 394.732L166.75 395.598L222.25 363.535L221.75 362.669ZM277.25 394.732L221.75 426.794L222.25 427.66L277.75 395.598L277.25 394.732ZM332.75 426.794L277.25 458.857L277.75 459.723L333.25 427.66L332.75 426.794ZM388.25 458.857L332.75 490.919L333.25 491.785L388.75 459.723L388.25 458.857ZM443.75 490.919L388.25 522.982L388.75 523.848L444.25 491.785L443.75 490.919ZM444 42.4771L444.5 41.6112L444 41.3222L443.5 41.6112L444 42.4771ZM610.5 138.665L611 137.799L610.5 138.665ZM666 170.727L665.5 171.593L666 170.727ZM888 298.977L888.5 299.843L889.999 298.977L888.5 298.111L888 298.977ZM333 106.602L333.5 107.468L333 106.602ZM277.5 138.665L277 137.799L277.5 138.665ZM222 170.727L222.5 171.593L222 170.727ZM166.5 202.79L167 203.655L166.5 202.79ZM610.5 459.29L610 458.424L610.5 459.29ZM111 234.852L110.5 233.986L111 234.852ZM555 491.352L555.5 492.218L555 491.352ZM55.5 266.915L54.9998 266.049L55.5 266.915ZM0 298.977L-0.500229 298.111L-1.99908 298.977L-0.500229 299.843L0 298.977ZM444 555.477L443.5 556.343L444 556.632L444.5 556.343L444 555.477ZM443.5 43.3429L499 75.4054L500 73.6737L444.5 41.6112L443.5 43.3429ZM389 75.4054L444.5 43.3429L443.5 41.6112L388 73.6737L389 75.4054ZM499 75.4054L554.5 107.468L555.5 105.736L500 73.6737L499 75.4054ZM554.5 107.468L610 139.53L611 137.799L555.5 105.736L554.5 107.468ZM610 139.53L665.5 171.593L666.5 169.861L611 137.799L610 139.53ZM665.5 171.593L721 203.655L722 201.924L666.5 169.861L665.5 171.593ZM721 203.655L776.5 235.718L777.5 233.986L722 201.924L721 203.655ZM776.5 235.718L832 267.78L833 266.049L777.5 233.986L776.5 235.718ZM832 267.78L887.5 299.843L888.5 298.111L833 266.049L832 267.78ZM887.5 298.111L832 330.174L833 331.905L888.5 299.843L887.5 298.111ZM333.5 107.468L389 75.4054L388 73.6737L332.5 105.736L333.5 107.468ZM832 330.174L776.5 362.236L777.5 363.968L833 331.905L832 330.174ZM278 139.53L333.5 107.468L332.5 105.736L277 137.799L278 139.53ZM776.5 362.236L721 394.299L722 396.03L777.5 363.968L776.5 362.236ZM222.5 171.593L278 139.53L277 137.799L221.5 169.861L222.5 171.593ZM721 394.299L665.5 426.361L666.5 428.093L722 396.03L721 394.299ZM167 203.655L222.5 171.593L221.5 169.861L166 201.924L167 203.655ZM665.5 426.361L610 458.424L611 460.155L666.5 428.093L665.5 426.361ZM111.5 235.718L167 203.655L166 201.924L110.5 233.986L111.5 235.718ZM610 458.424L554.5 490.486L555.5 492.218L611 460.155L610 458.424ZM56.0002 267.78L111.5 235.718L110.5 233.986L54.9998 266.049L56.0002 267.78ZM554.5 490.486L499 522.549L500 524.28L555.5 492.218L554.5 490.486ZM56.0002 330.174L0.500229 298.111L-0.500229 299.843L54.9998 331.905L56.0002 330.174ZM0.500229 299.843L56.0002 267.78L54.9998 266.049L-0.500229 298.111L0.500229 299.843ZM111.5 362.236L56.0002 330.174L54.9998 331.905L110.5 363.968L111.5 362.236ZM167 394.299L111.5 362.236L110.5 363.968L166 396.03L167 394.299ZM222.5 426.361L167 394.299L166 396.03L221.5 428.093L222.5 426.361ZM278 458.424L222.5 426.361L221.5 428.093L277 460.155L278 458.424ZM333.5 490.486L278 458.424L277 460.155L332.5 492.218L333.5 490.486ZM389 522.549L333.5 490.486L332.5 492.218L388 524.28L389 522.549ZM499 522.549L443.5 554.611L444.5 556.343L500 524.28L499 522.549ZM444.5 554.611L389 522.549L388 524.28L443.5 556.343L444.5 554.611Z" fill="#E2E8EF" mask="url(#path-1-inside-1_156_684)"/>
<rect width="162.813" height="68.2962" transform="matrix(0.866025 -0.5 2.20305e-08 1 388.118 238.828)" fill="#475668"/>
<rect width="142.028" height="70.1717" transform="matrix(0.866025 0.5 -2.20305e-08 1 265.118 166.477)" fill="#0F172A"/>
<rect width="143.304" height="161.537" transform="matrix(0.866025 0.5 -0.866025 0.5 405.013 85.8252)" fill="#334254"/>
<rect width="93.5307" height="22.5965" transform="matrix(0.866025 -0.5 2.20305e-08 1 218.118 290.881)" fill="#4038A7"/>
<rect width="50.8068" height="23.0023" transform="matrix(0.866025 0.5 -2.20305e-08 1 174.118 265.477)" fill="#86246B"/>
<rect width="50.9548" height="93.6214" transform="matrix(0.866025 0.5 -0.866025 0.5 255.078 218.589)" fill="#FF3FC9"/>
<rect width="135.1" height="35.7923" transform="matrix(0.866025 -0.5 2.20305e-08 1 260.118 344.685)" fill="#4038A7"/>
<rect width="80.829" height="36.464" transform="matrix(0.866025 0.5 -2.20305e-08 1 190.118 304.176)" fill="#312B7C"/>
<rect width="79.6338" height="135.523" transform="matrix(0.866025 0.5 -0.866025 0.5 308.554 237.477)" fill="#3F69FF"/>
<rect width="100.459" height="61.1032" transform="matrix(0.866025 -0.5 2.20305e-08 1 695.118 162.261)" fill="#EC6A33"/>
<rect width="80.8291" height="60.2915" transform="matrix(0.866025 0.5 -2.20305e-08 1 625.118 121.364)" fill="#E45619"/>
<rect width="81.0077" height="100.405" transform="matrix(0.866025 0.5 -0.866025 0.5 711.933 71.4771)" fill="#FF8C5B"/>
<rect width="162.813" height="31.1025" transform="matrix(0.866025 -0.5 2.20305e-08 1 547.118 277.262)" fill="#0BBAC5"/>
<rect width="83.1384" height="30.6016" transform="matrix(0.866025 0.5 -2.20305e-08 1 475.118 234.958)" fill="#312B7C"/>
<rect width="82.9756" height="162.976" transform="matrix(0.866025 0.5 -0.866025 0.5 616.259 154.477)" fill="#93F2F8"/>
<rect width="162.813" height="46.9933" transform="matrix(0.866025 -0.5 2.20305e-08 1 414.118 340.883)" fill="#45E18C"/>
<rect width="83.1384" height="45.6695" transform="matrix(0.866025 0.5 -2.20305e-08 1 342.118 299.402)" fill="#3AD882"/>
<rect width="82.9756" height="162.976" transform="matrix(0.866025 0.5 -0.866025 0.5 483.259 217.989)" fill="#62FFA9"/>
<rect width="189.371" height="54.196" transform="matrix(0.866025 -0.5 2.20305e-08 1 652 295.163)" fill="#DCEC1F"/>
<rect width="90.0666" height="54.2676" transform="matrix(0.866025 0.5 -2.20305e-08 1 574 250.054)" fill="#97A310"/>
<rect width="90.8213" height="189.771" transform="matrix(0.866025 0.5 -0.866025 0.5 737.346 155.066)" fill="#F0FF3F"/>
<rect width="162.813" height="28.9932" transform="matrix(0.866025 -0.5 2.20305e-08 1 546 432.215)" fill="#4038A7"/>
<rect width="143.183" height="29.5081" transform="matrix(0.866025 0.5 -2.20305e-08 1 422 360.647)" fill="#312B7C"/>
<rect width="143.039" height="162.233" transform="matrix(0.866025 0.5 -0.866025 0.5 562.529 279.561)" fill="#933FFF"/>
<rect width="146.647" height="23" transform="matrix(0.866025 -0.5 2.20305e-08 1 313 459.801)" fill="#C91A4F"/>
<rect width="121.244" height="22.827" transform="matrix(0.866025 0.5 -2.20305e-08 1 208 398.204)" fill="#CA023E"/>
<rect width="122.181" height="145.682" transform="matrix(0.866025 0.5 -0.866025 0.5 334.188 325.387)" fill="#FF3F78"/>
<path d="M204.697 270.759L192.1 263.487L196.824 260.759C197.792 260.201 198.784 259.836 199.801 259.666C200.822 259.493 201.816 259.492 202.784 259.662C203.752 259.828 204.635 260.142 205.435 260.603C206.243 261.07 206.79 261.582 207.077 262.141C207.364 262.7 207.356 263.275 207.053 263.867C206.745 264.456 206.105 265.031 205.134 265.593L202.003 267.4L200.127 266.317L202.95 264.687C203.516 264.36 203.881 264.036 204.045 263.714C204.209 263.392 204.205 263.082 204.033 262.784C203.864 262.483 203.557 262.204 203.11 261.946C202.663 261.688 202.181 261.511 201.664 261.416C201.152 261.319 200.619 261.322 200.065 261.424C199.512 261.521 198.95 261.734 198.38 262.063L196.289 263.27L206.979 269.442L204.697 270.759ZM219.915 262.186C218.993 262.719 217.99 263.063 216.908 263.22C215.825 263.376 214.732 263.351 213.629 263.145C212.53 262.937 211.493 262.551 210.517 261.987C209.541 261.424 208.871 260.824 208.506 260.187C208.145 259.548 208.1 258.916 208.37 258.291C208.641 257.666 209.238 257.087 210.16 256.554C211.083 256.021 212.085 255.677 213.168 255.521C214.25 255.364 215.343 255.392 216.446 255.602C217.553 255.811 218.595 256.197 219.571 256.76C220.547 257.323 221.213 257.924 221.57 258.56C221.931 259.195 221.976 259.825 221.705 260.45C221.435 261.075 220.838 261.653 219.915 262.186ZM218.144 261.149C218.644 260.86 218.925 260.54 218.987 260.187C219.044 259.832 218.921 259.472 218.617 259.107C218.318 258.74 217.881 258.391 217.307 258.06C216.729 257.726 216.122 257.473 215.487 257.3C214.851 257.122 214.226 257.05 213.611 257.083C212.996 257.116 212.438 257.277 211.938 257.566C211.425 257.862 211.138 258.189 211.077 258.546C211.019 258.901 211.142 259.264 211.446 259.633C211.749 259.997 212.19 260.347 212.768 260.68C213.342 261.012 213.945 261.265 214.576 261.44C215.212 261.613 215.837 261.683 216.452 261.65C217.068 261.612 217.631 261.445 218.144 261.149ZM226.664 250.051L224.856 251.351C224.593 251.266 224.3 251.212 223.976 251.191C223.656 251.167 223.322 251.192 222.974 251.266C222.625 251.339 222.279 251.475 221.934 251.674C221.471 251.941 221.182 252.224 221.067 252.523C220.956 252.819 221.063 253.058 221.387 253.24C221.658 253.401 221.981 253.472 222.359 253.453C222.74 253.432 223.226 253.315 223.816 253.101L225.772 252.37C226.859 251.965 227.829 251.758 228.682 251.748C229.539 251.737 230.308 251.925 230.988 252.313C231.579 252.659 231.929 253.062 232.04 253.524C232.151 253.981 232.03 254.458 231.677 254.955C231.324 255.452 230.754 255.928 229.967 256.383C228.811 257.05 227.638 257.448 226.449 257.576C225.256 257.701 224.157 257.552 223.152 257.128L225.114 255.754C225.639 255.944 226.17 256.009 226.707 255.949C227.244 255.89 227.769 255.713 228.282 255.417C228.811 255.111 229.127 254.804 229.229 254.493C229.336 254.181 229.229 253.932 228.909 253.748C228.639 253.592 228.311 253.523 227.925 253.542C227.544 253.558 227.089 253.665 226.56 253.861L224.61 254.596C223.515 255.011 222.527 255.214 221.645 255.207C220.759 255.198 219.974 254.993 219.289 254.593C218.703 254.259 218.357 253.877 218.25 253.446C218.143 253.01 218.26 252.559 218.601 252.093C218.941 251.622 219.488 251.168 220.243 250.733C221.35 250.094 222.457 249.727 223.564 249.632C224.675 249.535 225.709 249.675 226.664 250.051ZM230.924 244.708L232.646 245.703L227.215 248.838L225.492 247.844L230.924 244.708ZM224.57 245.763L226.796 244.478L235.666 249.598C235.965 249.771 236.24 249.878 236.49 249.918C236.74 249.953 236.97 249.944 237.179 249.889C237.388 249.835 237.585 249.755 237.769 249.648C237.909 249.567 238.026 249.488 238.12 249.41C238.218 249.33 238.29 249.267 238.335 249.222L240.451 250.01C240.373 250.103 240.248 250.227 240.076 250.383C239.908 250.537 239.67 250.707 239.362 250.894C238.821 251.226 238.235 251.467 237.603 251.619C236.968 251.768 236.322 251.805 235.666 251.729C235.014 251.651 234.395 251.44 233.808 251.097L224.57 245.763ZM242.615 240.842L240.806 242.142C240.544 242.057 240.251 242.003 239.927 241.982C239.607 241.958 239.273 241.983 238.924 242.057C238.576 242.13 238.229 242.266 237.885 242.465C237.421 242.732 237.132 243.015 237.017 243.314C236.907 243.61 237.013 243.849 237.337 244.031C237.608 244.192 237.932 244.263 238.309 244.244C238.69 244.223 239.176 244.106 239.767 243.892L241.723 243.161C242.809 242.756 243.779 242.549 244.632 242.539C245.489 242.528 246.258 242.716 246.939 243.104C247.529 243.45 247.88 243.853 247.99 244.315C248.101 244.772 247.98 245.249 247.628 245.746C247.275 246.243 246.705 246.719 245.918 247.174C244.761 247.841 243.589 248.239 242.399 248.367C241.206 248.492 240.107 248.343 239.103 247.919L241.065 246.545C241.59 246.735 242.121 246.8 242.658 246.74C243.195 246.681 243.72 246.504 244.232 246.208C244.761 245.902 245.077 245.595 245.18 245.285C245.286 244.972 245.18 244.723 244.86 244.539C244.589 244.383 244.261 244.314 243.876 244.333C243.494 244.349 243.039 244.456 242.51 244.652L240.56 245.387C239.465 245.802 238.477 246.005 237.596 245.998C236.71 245.989 235.925 245.784 235.24 245.384C234.654 245.05 234.307 244.668 234.2 244.237C234.094 243.801 234.211 243.35 234.551 242.884C234.891 242.413 235.439 241.959 236.193 241.524C237.3 240.885 238.408 240.518 239.515 240.423C240.626 240.326 241.659 240.466 242.615 240.842Z" fill="white"/>
<path d="M616.133 242.715L613.832 244.044C613.389 243.864 612.934 243.741 612.467 243.674C611.995 243.606 611.526 243.588 611.058 243.621C610.591 243.654 610.138 243.738 609.699 243.873C609.26 244.003 608.848 244.18 608.463 244.402C607.778 244.798 607.343 245.247 607.159 245.752C606.97 246.254 607.056 246.781 607.417 247.335C607.774 247.887 608.426 248.436 609.373 248.983C610.337 249.54 611.298 249.922 612.258 250.13C613.217 250.334 614.127 250.381 614.989 250.272C615.85 250.159 616.621 249.905 617.301 249.512C617.679 249.295 617.982 249.063 618.212 248.816C618.441 248.565 618.589 248.307 618.654 248.042C618.724 247.775 618.706 247.506 618.599 247.236C618.497 246.964 618.296 246.701 617.996 246.448L620.309 245.127C620.822 245.522 621.197 245.954 621.435 246.423C621.677 246.889 621.769 247.371 621.711 247.868C621.65 248.363 621.424 248.853 621.035 249.338C620.641 249.821 620.069 250.279 619.319 250.713C618.212 251.352 616.967 251.774 615.585 251.98C614.203 252.186 612.778 252.154 611.31 251.884C609.842 251.615 608.432 251.089 607.079 250.308C605.721 249.524 604.813 248.709 604.354 247.861C603.891 247.011 603.837 246.187 604.194 245.389C604.551 244.592 605.279 243.875 606.378 243.241C607.079 242.836 607.829 242.517 608.629 242.282C609.428 242.048 610.255 241.905 611.107 241.853C611.956 241.798 612.807 241.842 613.66 241.984C614.513 242.121 615.337 242.365 616.133 242.715ZM630.776 244.112C629.853 244.645 628.851 244.989 627.768 245.145C626.686 245.302 625.593 245.277 624.49 245.071C623.391 244.862 622.354 244.477 621.378 243.913C620.402 243.35 619.731 242.749 619.366 242.113C619.006 241.473 618.96 240.841 619.231 240.216C619.502 239.591 620.098 239.012 621.021 238.48C621.944 237.947 622.946 237.603 624.029 237.446C625.111 237.29 626.204 237.317 627.307 237.528C628.414 237.736 629.456 238.122 630.432 238.686C631.408 239.249 632.074 239.849 632.431 240.486C632.791 241.121 632.837 241.75 632.566 242.375C632.295 243 631.699 243.579 630.776 244.112ZM629.005 243.075C629.505 242.786 629.786 242.465 629.847 242.113C629.905 241.758 629.782 241.398 629.478 241.033C629.179 240.666 628.742 240.317 628.168 239.986C627.59 239.652 626.983 239.398 626.347 239.226C625.712 239.048 625.087 238.976 624.472 239.009C623.856 239.042 623.299 239.203 622.799 239.492C622.286 239.788 621.999 240.115 621.937 240.472C621.88 240.827 622.003 241.189 622.306 241.559C622.61 241.923 623.051 242.272 623.629 242.606C624.203 242.938 624.806 243.191 625.437 243.366C626.073 243.539 626.698 243.609 627.313 243.576C627.928 243.538 628.492 243.371 629.005 243.075ZM633.699 235.819L639.235 239.015L637.008 240.301L627.561 234.846L629.689 233.617L631.294 234.544L631.405 234.48C631.093 234.049 631.019 233.607 631.184 233.152C631.352 232.695 631.788 232.263 632.494 231.856C633.146 231.48 633.853 231.232 634.616 231.114C635.382 230.993 636.164 231.009 636.959 231.16C637.759 231.309 638.534 231.603 639.284 232.041L645.299 235.514L643.073 236.799L637.402 233.525C636.77 233.161 636.112 232.97 635.428 232.953C634.747 232.934 634.119 233.091 633.545 233.422C633.156 233.647 632.895 233.897 632.764 234.171C632.633 234.441 632.641 234.718 632.789 235.002C632.941 235.284 633.244 235.556 633.699 235.819ZM644.254 229.725L649.79 232.921L647.563 234.207L638.115 228.752L640.244 227.524L641.849 228.451L641.96 228.387C641.648 227.956 641.574 227.513 641.738 227.058C641.906 226.602 642.343 226.17 643.048 225.762C643.7 225.386 644.408 225.139 645.17 225.02C645.937 224.899 646.718 224.915 647.514 225.066C648.313 225.215 649.088 225.509 649.839 225.947L655.854 229.42L653.628 230.705L647.957 227.431C647.325 227.067 646.667 226.876 645.982 226.86C645.302 226.841 644.674 226.997 644.1 227.328C643.711 227.553 643.45 227.803 643.319 228.078C643.188 228.348 643.196 228.625 643.344 228.909C643.495 229.19 643.799 229.463 644.254 229.725ZM662.485 225.805C661.537 226.352 660.523 226.71 659.44 226.881C658.358 227.047 657.269 227.027 656.174 226.821C655.075 226.612 654.031 226.223 653.043 225.652C652.071 225.091 651.403 224.492 651.038 223.855C650.673 223.214 650.62 222.582 650.878 221.959C651.132 221.334 651.711 220.761 652.613 220.24C653.195 219.904 653.839 219.641 654.544 219.452C655.249 219.258 655.996 219.158 656.783 219.154C657.574 219.147 658.386 219.251 659.219 219.466C660.047 219.679 660.875 220.025 661.704 220.503L662.386 220.897L654.642 225.368L653.142 224.502L658.751 221.263C658.321 221.019 657.849 220.853 657.336 220.766C656.82 220.676 656.303 220.669 655.787 220.745C655.274 220.818 654.804 220.978 654.378 221.224C653.923 221.487 653.634 221.781 653.511 222.108C653.384 222.433 653.402 222.753 653.566 223.071C653.73 223.383 654.021 223.662 654.439 223.909L655.75 224.665C656.299 224.982 656.871 225.197 657.466 225.308C658.056 225.417 658.636 225.427 659.206 225.34C659.772 225.25 660.297 225.065 660.781 224.786C661.105 224.599 661.353 224.403 661.525 224.2C661.693 223.994 661.783 223.783 661.796 223.568C661.808 223.352 661.73 223.139 661.562 222.929L663.875 221.863C664.293 222.256 664.523 222.678 664.564 223.127C664.605 223.572 664.453 224.025 664.108 224.484C663.76 224.941 663.219 225.381 662.485 225.805ZM672.69 219.913C671.747 220.457 670.73 220.805 669.64 220.957C668.553 221.106 667.462 221.075 666.367 220.864C665.273 220.649 664.247 220.265 663.292 219.714C662.332 219.16 661.67 218.564 661.305 217.928C660.936 217.288 660.883 216.656 661.145 216.031C661.408 215.402 662 214.82 662.923 214.288C663.69 213.845 664.51 213.535 665.383 213.357C666.257 213.175 667.126 213.13 667.991 213.222C668.852 213.312 669.648 213.54 670.378 213.904L668.249 215.133C667.708 214.92 667.124 214.819 666.497 214.831C665.869 214.838 665.287 214.997 664.75 215.307C664.295 215.57 664.018 215.872 663.919 216.212C663.817 216.551 663.897 216.907 664.159 217.281C664.426 217.653 664.877 218.022 665.512 218.389C666.156 218.761 666.804 219.026 667.456 219.185C668.104 219.341 668.723 219.393 669.314 219.341C669.904 219.284 670.431 219.122 670.894 218.854C671.222 218.665 671.454 218.46 671.589 218.24C671.725 218.015 671.762 217.783 671.7 217.544C671.639 217.305 671.47 217.068 671.196 216.834L673.324 215.605C673.939 216.022 674.335 216.478 674.511 216.972C674.683 217.465 674.622 217.964 674.326 218.471C674.027 218.975 673.482 219.456 672.69 219.913ZM673.651 208.236L675.374 209.23L669.942 212.366L668.22 211.371L673.651 208.236ZM667.298 209.29L669.524 208.005L678.394 213.126C678.693 213.298 678.968 213.405 679.218 213.445C679.468 213.481 679.698 213.471 679.907 213.417C680.116 213.362 680.313 213.282 680.497 213.175C680.637 213.095 680.753 213.016 680.848 212.937C680.946 212.857 681.018 212.794 681.063 212.749L683.179 213.538C683.101 213.63 682.976 213.754 682.804 213.91C682.636 214.064 682.398 214.235 682.09 214.422C681.549 214.753 680.963 214.995 680.331 215.146C679.695 215.295 679.05 215.332 678.394 215.256C677.742 215.178 677.122 214.967 676.536 214.624L667.298 209.29ZM684.961 212.615L675.513 207.161L677.74 205.875L687.188 211.33L684.961 212.615ZM675.292 205.74C674.939 205.944 674.519 206.051 674.031 206.063C673.539 206.073 673.127 205.982 672.795 205.79C672.459 205.596 672.301 205.358 672.321 205.076C672.338 204.792 672.522 204.548 672.875 204.345C673.232 204.139 673.654 204.032 674.142 204.025C674.63 204.013 675.042 204.104 675.378 204.298C675.71 204.49 675.868 204.728 675.852 205.012C675.835 205.291 675.649 205.534 675.292 205.74ZM693.783 207.735C692.86 208.268 691.858 208.612 690.775 208.768C689.693 208.925 688.6 208.9 687.497 208.694C686.398 208.485 685.36 208.1 684.384 207.536C683.408 206.973 682.738 206.373 682.373 205.736C682.012 205.096 681.967 204.464 682.238 203.839C682.508 203.214 683.105 202.636 684.028 202.103C684.95 201.57 685.953 201.226 687.035 201.069C688.118 200.913 689.211 200.94 690.314 201.151C691.421 201.36 692.462 201.745 693.438 202.309C694.414 202.872 695.081 203.472 695.437 204.109C695.798 204.744 695.843 205.373 695.573 205.998C695.302 206.623 694.705 207.202 693.783 207.735ZM692.011 206.698C692.512 206.409 692.792 206.088 692.854 205.736C692.911 205.381 692.788 205.021 692.485 204.656C692.186 204.289 691.749 203.94 691.175 203.609C690.597 203.275 689.99 203.021 689.354 202.849C688.719 202.671 688.093 202.599 687.478 202.632C686.863 202.665 686.305 202.826 685.805 203.115C685.293 203.411 685.006 203.738 684.944 204.095C684.887 204.45 685.01 204.812 685.313 205.182C685.617 205.546 686.057 205.895 686.636 206.229C687.21 206.561 687.812 206.814 688.444 206.989C689.079 207.162 689.705 207.232 690.32 207.199C690.935 207.161 691.499 206.994 692.011 206.698ZM696.706 199.442L702.242 202.638L700.015 203.924L690.567 198.469L692.696 197.24L694.301 198.167L694.412 198.103C694.1 197.673 694.026 197.23 694.19 196.775C694.358 196.318 694.795 195.886 695.5 195.479C696.152 195.103 696.86 194.855 697.622 194.737C698.389 194.616 699.17 194.632 699.966 194.783C700.765 194.932 701.54 195.226 702.291 195.664L708.306 199.137L706.08 200.422L700.409 197.148C699.777 196.784 699.119 196.593 698.434 196.576C697.754 196.557 697.126 196.714 696.552 197.045C696.163 197.27 695.902 197.52 695.771 197.794C695.64 198.064 695.648 198.341 695.796 198.625C695.947 198.907 696.251 199.179 696.706 199.442ZM711.086 189.506L709.278 190.806C709.016 190.721 708.722 190.667 708.398 190.646C708.079 190.622 707.744 190.647 707.396 190.721C707.047 190.794 706.701 190.93 706.356 191.129C705.893 191.396 705.604 191.679 705.489 191.978C705.378 192.274 705.485 192.513 705.809 192.695C706.08 192.856 706.404 192.927 706.781 192.908C707.162 192.887 707.648 192.77 708.239 192.557L710.194 191.825C711.281 191.42 712.251 191.213 713.104 191.204C713.961 191.192 714.73 191.38 715.41 191.768C716.001 192.114 716.351 192.517 716.462 192.979C716.573 193.436 716.452 193.913 716.099 194.41C715.747 194.907 715.177 195.383 714.389 195.838C713.233 196.505 712.06 196.903 710.871 197.031C709.678 197.156 708.579 197.007 707.574 196.584L709.536 195.209C710.061 195.399 710.592 195.464 711.129 195.405C711.667 195.345 712.191 195.168 712.704 194.872C713.233 194.566 713.549 194.259 713.651 193.949C713.758 193.636 713.651 193.387 713.331 193.203C713.061 193.047 712.733 192.978 712.347 192.997C711.966 193.013 711.511 193.12 710.982 193.316L709.032 194.052C707.937 194.466 706.949 194.669 706.067 194.662C705.182 194.653 704.396 194.448 703.712 194.048C703.125 193.714 702.779 193.332 702.672 192.901C702.566 192.465 702.682 192.014 703.023 191.548C703.363 191.077 703.91 190.624 704.665 190.188C705.772 189.549 706.879 189.182 707.986 189.087C709.098 188.99 710.131 189.13 711.086 189.506Z" fill="#382424"/>
<path d="M638.382 121.669L650.979 128.942L648.697 130.259L636.1 122.987L638.382 121.669ZM650.042 123.091L655.578 126.287L653.352 127.572L643.904 122.118L646.032 120.889L647.637 121.816L647.748 121.752C647.437 121.321 647.363 120.878 647.527 120.424C647.695 119.967 648.132 119.535 648.837 119.128C649.489 118.751 650.196 118.504 650.959 118.385C651.726 118.265 652.507 118.28 653.302 118.432C654.102 118.581 654.877 118.874 655.627 119.312L661.643 122.785L659.416 124.071L653.745 120.797C653.114 120.432 652.456 120.241 651.771 120.225C651.09 120.206 650.463 120.362 649.889 120.694C649.499 120.919 649.239 121.168 649.107 121.443C648.976 121.713 648.984 121.99 649.132 122.274C649.284 122.556 649.587 122.828 650.042 123.091ZM659.176 113.3L660.898 114.294L655.467 117.43L653.745 116.436L659.176 113.3ZM652.823 114.355L655.049 113.069L663.918 118.19C664.218 118.363 664.493 118.469 664.743 118.51C664.993 118.545 665.222 118.536 665.432 118.481C665.641 118.427 665.838 118.346 666.022 118.24C666.161 118.159 666.278 118.08 666.373 118.002C666.471 117.921 666.543 117.859 666.588 117.814L668.704 118.602C668.626 118.694 668.501 118.819 668.329 118.975C668.16 119.129 667.923 119.299 667.615 119.486C667.074 119.818 666.487 120.059 665.856 120.211C665.22 120.36 664.575 120.396 663.918 120.321C663.267 120.243 662.647 120.032 662.061 119.689L652.823 114.355ZM674.752 115.43C673.804 115.977 672.789 116.335 671.707 116.506C670.624 116.672 669.536 116.652 668.441 116.446C667.342 116.237 666.298 115.848 665.31 115.277C664.338 114.716 663.67 114.117 663.305 113.48C662.94 112.839 662.887 112.207 663.145 111.584C663.399 110.959 663.977 110.386 664.88 109.865C665.462 109.529 666.106 109.266 666.811 109.077C667.516 108.883 668.262 108.783 669.05 108.779C669.841 108.772 670.653 108.876 671.485 109.091C672.314 109.304 673.142 109.65 673.97 110.128L674.653 110.522L666.909 114.993L665.409 114.127L671.018 110.888C670.587 110.644 670.116 110.478 669.603 110.391C669.087 110.301 668.57 110.294 668.053 110.37C667.541 110.443 667.071 110.603 666.645 110.849C666.19 111.112 665.901 111.406 665.778 111.733C665.65 112.058 665.669 112.378 665.833 112.696C665.997 113.008 666.288 113.287 666.706 113.534L668.016 114.29C668.566 114.607 669.138 114.822 669.732 114.933C670.323 115.042 670.903 115.052 671.473 114.965C672.039 114.875 672.564 114.69 673.048 114.411C673.372 114.224 673.62 114.028 673.792 113.825C673.96 113.619 674.05 113.408 674.063 113.193C674.075 112.977 673.997 112.764 673.829 112.554L676.142 111.488C676.56 111.881 676.789 112.303 676.83 112.752C676.871 113.197 676.72 113.65 676.375 114.109C676.027 114.566 675.485 115.006 674.752 115.43ZM680.652 111.81L671.204 106.356L673.363 105.109L674.938 106.019L675.036 105.962C674.663 105.547 674.538 105.134 674.661 104.722C674.784 104.306 675.116 103.941 675.657 103.629C675.78 103.558 675.924 103.482 676.088 103.401C676.252 103.316 676.395 103.25 676.518 103.202L678.567 104.385C678.439 104.421 678.261 104.49 678.031 104.595C677.802 104.694 677.593 104.798 677.404 104.907C676.998 105.141 676.721 105.403 676.574 105.692C676.426 105.976 676.414 106.26 676.537 106.544C676.66 106.828 676.922 107.086 677.324 107.318L682.878 110.525L680.652 111.81ZM691.497 105.762C690.55 106.309 689.535 106.668 688.452 106.838C687.37 107.004 686.281 106.984 685.186 106.778C684.087 106.569 683.044 106.18 682.056 105.609C681.084 105.048 680.415 104.449 680.05 103.812C679.685 103.171 679.632 102.539 679.89 101.916C680.145 101.291 680.723 100.718 681.625 100.197C682.207 99.8612 682.851 99.5984 683.556 99.409C684.262 99.2149 685.008 99.1154 685.795 99.1107C686.587 99.1036 687.398 99.2077 688.231 99.4232C689.059 99.6363 689.887 99.9819 690.716 100.46L691.399 100.854L683.655 105.325L682.154 104.459L687.763 101.22C687.333 100.976 686.861 100.81 686.349 100.723C685.832 100.633 685.315 100.626 684.799 100.702C684.286 100.775 683.817 100.935 683.39 101.181C682.935 101.444 682.646 101.739 682.523 102.065C682.396 102.39 682.414 102.71 682.578 103.028C682.742 103.34 683.033 103.619 683.452 103.866L684.762 104.622C685.311 104.939 685.883 105.154 686.478 105.265C687.068 105.374 687.649 105.384 688.219 105.297C688.784 105.207 689.309 105.022 689.793 104.743C690.117 104.556 690.365 104.36 690.537 104.157C690.706 103.951 690.796 103.74 690.808 103.525C690.82 103.309 690.742 103.096 690.574 102.886L692.887 101.82C693.305 102.213 693.535 102.635 693.576 103.084C693.617 103.529 693.465 103.982 693.121 104.441C692.772 104.898 692.231 105.338 691.497 105.762ZM697.914 93.8186L696.105 95.1183C695.843 95.0331 695.55 94.9798 695.226 94.9585C694.906 94.9348 694.572 94.9597 694.223 95.0331C693.875 95.1065 693.528 95.2426 693.184 95.4415C692.72 95.709 692.431 95.9919 692.317 96.2902C692.206 96.5861 692.312 96.8252 692.636 97.0075C692.907 97.1685 693.231 97.2395 693.608 97.2206C693.99 97.1993 694.475 97.0821 695.066 96.869L697.022 96.1375C698.108 95.7327 699.078 95.5255 699.931 95.516C700.788 95.5042 701.557 95.6924 702.238 96.0807C702.828 96.4263 703.179 96.83 703.289 97.2916C703.4 97.7485 703.279 98.2256 702.927 98.7227C702.574 99.2199 702.004 99.6957 701.217 100.15C700.06 100.818 698.888 101.216 697.698 101.343C696.505 101.469 695.406 101.32 694.402 100.896L696.364 99.5217C696.889 99.7111 697.42 99.7762 697.957 99.717C698.494 99.6579 699.019 99.4803 699.531 99.1844C700.06 98.879 700.376 98.5712 700.479 98.2611C700.585 97.9486 700.479 97.7 700.159 97.5153C699.888 97.3591 699.56 97.2904 699.175 97.3094C698.793 97.3259 698.338 97.4325 697.809 97.629L695.859 98.3641C694.765 98.7784 693.776 98.982 692.895 98.9749C692.009 98.9654 691.224 98.7606 690.539 98.3605C689.953 98.0267 689.606 97.6444 689.499 97.2135C689.393 96.7779 689.51 96.3269 689.85 95.8605C690.19 95.3894 690.738 94.936 691.492 94.5004C692.599 93.8612 693.707 93.4943 694.814 93.3996C695.925 93.3025 696.958 93.4422 697.914 93.8186ZM702.173 88.4759L703.895 89.4702L698.464 92.6059L696.742 91.6116L702.173 88.4759ZM695.819 89.5306L698.046 88.2451L706.915 93.3658C707.215 93.5387 707.489 93.6452 707.74 93.6854C707.99 93.7209 708.219 93.7115 708.428 93.657C708.638 93.6026 708.834 93.5221 709.019 93.4155C709.158 93.3351 709.275 93.2557 709.369 93.1776C709.468 93.0971 709.54 93.0344 709.585 92.9894L711.701 93.7778C711.623 93.8701 711.498 93.9944 711.325 94.1506C711.157 94.3045 710.919 94.475 710.612 94.662C710.071 94.9934 709.484 95.2349 708.853 95.3864C708.217 95.5356 707.571 95.5723 706.915 95.4965C706.263 95.4184 705.644 95.2077 705.058 94.8644L695.819 89.5306ZM713.864 84.6096L712.056 85.9093C711.793 85.8241 711.5 85.7708 711.176 85.7495C710.856 85.7259 710.522 85.7507 710.174 85.8241C709.825 85.8975 709.479 86.0336 709.134 86.2325C708.671 86.5 708.382 86.7829 708.267 87.0812C708.156 87.3771 708.263 87.6162 708.587 87.7985C708.857 87.9595 709.181 88.0305 709.559 88.0116C709.94 87.9903 710.426 87.8731 711.016 87.66L712.972 86.9285C714.059 86.5237 715.029 86.3165 715.882 86.3071C716.739 86.2952 717.507 86.4834 718.188 86.8717C718.779 87.2173 719.129 87.621 719.24 88.0826C719.351 88.5395 719.23 89.0166 718.877 89.5137C718.524 90.0109 717.954 90.4867 717.167 90.9413C716.011 91.6089 714.838 92.0066 713.649 92.1345C712.456 92.26 711.357 92.1108 710.352 91.687L712.314 90.3127C712.839 90.5021 713.37 90.5672 713.907 90.5081C714.444 90.4489 714.969 90.2713 715.482 89.9754C716.011 89.67 716.326 89.3622 716.429 89.0521C716.536 88.7396 716.429 88.491 716.109 88.3064C715.839 88.1501 715.51 88.0814 715.125 88.1004C714.744 88.117 714.289 88.2235 713.76 88.42L711.81 89.1551C710.715 89.5694 709.727 89.773 708.845 89.7659C707.959 89.7564 707.174 89.5516 706.489 89.1515C705.903 88.8177 705.557 88.4354 705.45 88.0045C705.343 87.5689 705.46 87.1179 705.8 86.6515C706.141 86.1804 706.688 85.727 707.443 85.2914C708.55 84.6522 709.657 84.2853 710.764 84.1906C711.875 84.0935 712.909 84.2332 713.864 84.6096Z" fill="white"/>
<path d="M380.315 304.326L377.879 305.732L369.717 295.899L372.534 294.272L389.571 298.981L387.136 300.387L373.758 296.549L373.659 296.605L380.315 304.326ZM375.455 301.428L382.098 297.593L383.931 298.651L377.288 302.486L375.455 301.428ZM395.15 295.973C394.207 296.518 393.19 296.866 392.099 297.017C391.013 297.166 389.922 297.136 388.827 296.925C387.732 296.71 386.707 296.326 385.752 295.774C384.792 295.22 384.13 294.625 383.765 293.988C383.396 293.349 383.343 292.717 383.605 292.092C383.868 291.462 384.46 290.881 385.383 290.348C386.15 289.906 386.97 289.595 387.843 289.418C388.717 289.236 389.586 289.191 390.451 289.283C391.312 289.373 392.108 289.6 392.838 289.965L390.709 291.193C390.168 290.98 389.584 290.88 388.956 290.892C388.329 290.899 387.747 291.057 387.21 291.367C386.754 291.63 386.478 291.932 386.379 292.273C386.277 292.612 386.357 292.968 386.619 293.342C386.886 293.714 387.337 294.083 387.972 294.45C388.616 294.822 389.264 295.087 389.916 295.245C390.564 295.402 391.183 295.454 391.773 295.402C392.364 295.345 392.891 295.183 393.354 294.915C393.682 294.726 393.914 294.521 394.049 294.301C394.185 294.076 394.221 293.844 394.16 293.605C394.098 293.366 393.93 293.129 393.656 292.894L395.784 291.666C396.399 292.082 396.794 292.538 396.971 293.033C397.143 293.525 397.082 294.025 396.786 294.531C396.487 295.036 395.942 295.516 395.15 295.973ZM396.111 284.296L397.833 285.291L392.402 288.426L390.68 287.432L396.111 284.296ZM389.758 285.351L391.984 284.065L400.853 289.186C401.153 289.359 401.428 289.466 401.678 289.506C401.928 289.541 402.157 289.532 402.367 289.477C402.576 289.423 402.773 289.342 402.957 289.236C403.096 289.155 403.213 289.076 403.308 288.998C403.406 288.917 403.478 288.855 403.523 288.81L405.639 289.598C405.561 289.69 405.436 289.815 405.264 289.971C405.095 290.125 404.858 290.295 404.55 290.482C404.009 290.814 403.422 291.055 402.791 291.207C402.155 291.356 401.51 291.393 400.853 291.317C400.201 291.239 399.582 291.028 398.996 290.685L389.758 285.351ZM407.421 288.676L397.973 283.221L400.2 281.936L409.648 287.39L407.421 288.676ZM397.752 281.801C397.399 282.004 396.979 282.112 396.491 282.124C395.999 282.133 395.587 282.042 395.255 281.85C394.919 281.656 394.761 281.418 394.781 281.137C394.798 280.853 394.982 280.609 395.335 280.405C395.691 280.199 396.114 280.093 396.602 280.085C397.09 280.074 397.502 280.165 397.838 280.359C398.17 280.551 398.328 280.789 398.312 281.073C398.295 281.352 398.109 281.595 397.752 281.801ZM416.243 283.796C415.32 284.328 414.317 284.673 413.235 284.829C412.152 284.985 411.06 284.96 409.957 284.754C408.858 284.546 407.82 284.16 406.844 283.597C405.868 283.033 405.198 282.433 404.833 281.796C404.472 281.157 404.427 280.525 404.698 279.9C404.968 279.275 405.565 278.696 406.488 278.163C407.41 277.631 408.413 277.286 409.495 277.13C410.578 276.974 411.671 277.001 412.774 277.212C413.881 277.42 414.922 277.806 415.898 278.369C416.874 278.933 417.54 279.533 417.897 280.17C418.258 280.804 418.303 281.434 418.033 282.059C417.762 282.684 417.165 283.263 416.243 283.796ZM414.471 282.759C414.971 282.47 415.252 282.149 415.314 281.796C415.371 281.441 415.248 281.081 414.945 280.717C414.645 280.35 414.209 280.001 413.635 279.669C413.057 279.335 412.45 279.082 411.814 278.909C411.179 278.732 410.553 278.659 409.938 278.693C409.323 278.726 408.765 278.887 408.265 279.175C407.753 279.471 407.466 279.798 407.404 280.156C407.347 280.511 407.47 280.873 407.773 281.242C408.076 281.607 408.517 281.956 409.095 282.29C409.67 282.621 410.272 282.875 410.904 283.05C411.539 283.223 412.165 283.292 412.78 283.259C413.395 283.221 413.959 283.055 414.471 282.759ZM419.166 275.503L424.701 278.699L422.475 279.984L413.027 274.53L415.155 273.301L416.761 274.228L416.872 274.164C416.56 273.733 416.486 273.29 416.65 272.836C416.818 272.379 417.255 271.947 417.96 271.54C418.612 271.163 419.32 270.916 420.082 270.797C420.849 270.677 421.63 270.692 422.426 270.844C423.225 270.993 424 271.286 424.751 271.724L430.766 275.197L428.54 276.483L422.869 273.209C422.237 272.844 421.579 272.654 420.894 272.637C420.213 272.618 419.586 272.774 419.012 273.106C418.622 273.331 418.362 273.58 418.231 273.855C418.1 274.125 418.108 274.402 418.255 274.686C418.407 274.968 418.711 275.24 419.166 275.503ZM433.546 265.567L431.738 266.866C431.475 266.781 431.182 266.728 430.858 266.707C430.539 266.683 430.204 266.708 429.856 266.781C429.507 266.855 429.161 266.991 428.816 267.19C428.353 267.457 428.064 267.74 427.949 268.038C427.838 268.334 427.945 268.573 428.269 268.756C428.54 268.917 428.863 268.988 429.241 268.969C429.622 268.947 430.108 268.83 430.698 268.617L432.654 267.886C433.741 267.481 434.711 267.274 435.564 267.264C436.421 267.252 437.19 267.44 437.87 267.829C438.461 268.174 438.811 268.578 438.922 269.04C439.033 269.497 438.912 269.974 438.559 270.471C438.206 270.968 437.636 271.444 436.849 271.898C435.693 272.566 434.52 272.964 433.331 273.092C432.138 273.217 431.039 273.068 430.034 272.644L431.996 271.27C432.521 271.459 433.052 271.524 433.589 271.465C434.126 271.406 434.651 271.228 435.164 270.932C435.693 270.627 436.009 270.319 436.111 270.009C436.218 269.697 436.111 269.448 435.791 269.263C435.521 269.107 435.193 269.038 434.807 269.057C434.426 269.074 433.971 269.181 433.442 269.377L431.492 270.112C430.397 270.526 429.409 270.73 428.527 270.723C427.642 270.713 426.856 270.509 426.171 270.109C425.585 269.775 425.239 269.392 425.132 268.962C425.025 268.526 425.142 268.075 425.483 267.609C425.823 267.137 426.37 266.684 427.125 266.248C428.232 265.609 429.339 265.242 430.446 265.148C431.557 265.051 432.591 265.19 433.546 265.567Z" fill="#372626"/>
<path d="M527.697 232.759L515.1 225.487L523.293 220.757L525.206 221.861L519.295 225.274L522.715 227.248L528.201 224.08L530.114 225.185L524.628 228.353L528.066 230.338L534.026 226.897L535.939 228.001L527.697 232.759ZM534.81 222.261L540.346 225.457L538.119 226.742L528.672 221.288L530.8 220.059L532.405 220.986L532.516 220.922C532.204 220.491 532.131 220.048 532.295 219.594C532.463 219.137 532.899 218.705 533.605 218.297C534.257 217.921 534.964 217.674 535.727 217.555C536.494 217.435 537.275 217.45 538.07 217.601C538.87 217.751 539.645 218.044 540.395 218.482L546.411 221.955L544.184 223.241L538.513 219.967C537.882 219.602 537.223 219.411 536.539 219.395C535.858 219.376 535.231 219.532 534.657 219.864C534.267 220.088 534.007 220.338 533.875 220.613C533.744 220.883 533.752 221.16 533.9 221.444C534.052 221.726 534.355 221.998 534.81 222.261ZM556.522 220.435C555.723 220.897 554.927 221.231 554.136 221.437C553.349 221.645 552.6 221.746 551.891 221.739C551.182 221.731 550.54 221.64 549.966 221.465L551.485 220.027C551.76 220.081 552.073 220.111 552.426 220.116C552.783 220.123 553.166 220.077 553.576 219.977C553.994 219.878 554.427 219.699 554.874 219.441C555.505 219.076 555.875 218.686 555.981 218.269C556.092 217.855 555.799 217.446 555.102 217.044L553.312 216.011L553.201 216.074C553.316 216.273 553.383 216.507 553.404 216.774C553.429 217.039 553.342 217.323 553.146 217.626C552.953 217.927 552.586 218.234 552.045 218.546C551.319 218.965 550.491 219.247 549.56 219.391C548.629 219.531 547.649 219.505 546.62 219.313C545.59 219.117 544.561 218.721 543.532 218.127C542.495 217.528 541.791 216.923 541.422 216.312C541.053 215.697 540.979 215.112 541.201 214.558C541.418 214.002 541.89 213.514 542.616 213.095C543.169 212.775 543.719 212.567 544.264 212.47C544.809 212.368 545.32 212.332 545.796 212.36C546.267 212.386 546.673 212.433 547.013 212.502L547.136 212.431L545.574 211.529L547.77 210.261L557.371 215.805C558.179 216.271 558.655 216.768 558.798 217.296C558.942 217.824 558.81 218.357 558.405 218.894C557.999 219.431 557.371 219.945 556.522 220.435ZM550.919 217.179C551.391 216.907 551.678 216.608 551.78 216.284C551.883 215.96 551.805 215.623 551.546 215.275C551.288 214.927 550.858 214.579 550.255 214.231C549.66 213.888 549.053 213.637 548.434 213.479C547.819 213.318 547.222 213.262 546.644 213.312C546.066 213.357 545.537 213.518 545.057 213.795C544.561 214.081 544.276 214.395 544.202 214.736C544.129 215.077 544.233 215.426 544.516 215.783C544.795 216.138 545.219 216.48 545.789 216.81C546.368 217.143 546.958 217.387 547.561 217.541C548.164 217.69 548.752 217.739 549.326 217.687C549.9 217.63 550.431 217.461 550.919 217.179ZM562.409 212.939C561.81 213.284 561.164 213.534 560.471 213.688C559.778 213.837 559.081 213.87 558.38 213.788C557.683 213.702 557.025 213.481 556.406 213.123C555.872 212.816 555.53 212.504 555.378 212.19C555.227 211.875 555.216 211.559 555.348 211.241C555.479 210.924 555.704 210.612 556.024 210.304C556.344 209.991 556.709 209.688 557.119 209.395C557.615 209.042 558.013 208.753 558.312 208.528C558.608 208.301 558.784 208.114 558.841 207.967C558.899 207.816 558.821 207.678 558.608 207.555L558.571 207.534C558.107 207.266 557.611 207.139 557.082 207.15C556.553 207.162 556.03 207.317 555.514 207.616C554.968 207.931 554.655 208.249 554.573 208.571C554.495 208.891 554.562 209.176 554.776 209.427L552.401 210.457C551.991 210.03 551.782 209.597 551.774 209.157C551.762 208.714 551.932 208.28 552.285 207.854C552.633 207.425 553.137 207.02 553.798 206.639C554.253 206.376 554.759 206.145 555.317 205.947C555.875 205.748 556.463 205.612 557.082 205.538C557.697 205.462 558.327 205.48 558.97 205.592C559.618 205.7 560.256 205.936 560.883 206.298L567.206 209.949L565.066 211.185L563.768 210.435L563.694 210.478C563.821 210.708 563.877 210.96 563.86 211.234C563.844 211.504 563.721 211.786 563.491 212.079C563.262 212.368 562.901 212.655 562.409 212.939ZM561.351 211.66C561.798 211.402 562.097 211.128 562.249 210.837C562.396 210.543 562.411 210.26 562.292 209.988C562.177 209.713 561.945 209.475 561.597 209.274L560.484 208.631C560.471 208.705 560.406 208.804 560.287 208.93C560.172 209.053 560.03 209.184 559.862 209.324C559.694 209.463 559.524 209.6 559.352 209.732C559.18 209.865 559.03 209.98 558.903 210.077C558.616 210.294 558.392 210.509 558.232 210.719C558.072 210.93 558.009 211.132 558.042 211.327C558.07 211.518 558.228 211.697 558.515 211.863C558.925 212.1 559.385 212.192 559.893 212.14C560.401 212.088 560.887 211.928 561.351 211.66ZM577.293 208.443C576.494 208.905 575.698 209.239 574.907 209.444C574.12 209.653 573.371 209.753 572.662 209.746C571.953 209.739 571.311 209.648 570.737 209.473L572.256 208.035C572.531 208.089 572.844 208.119 573.197 208.123C573.554 208.131 573.937 208.084 574.347 207.985C574.766 207.886 575.198 207.707 575.645 207.449C576.277 207.084 576.646 206.694 576.752 206.277C576.863 205.863 576.57 205.454 575.873 205.052L574.083 204.018L573.972 204.082C574.087 204.281 574.155 204.514 574.175 204.782C574.2 205.047 574.114 205.331 573.917 205.634C573.724 205.935 573.357 206.241 572.816 206.554C572.09 206.973 571.262 207.255 570.331 207.399C569.4 207.539 568.42 207.513 567.391 207.321C566.362 207.124 565.332 206.729 564.303 206.135C563.266 205.536 562.562 204.931 562.193 204.32C561.824 203.705 561.751 203.12 561.972 202.566C562.189 202.01 562.661 201.522 563.387 201.103C563.94 200.783 564.49 200.575 565.035 200.478C565.58 200.376 566.091 200.339 566.567 200.368C567.038 200.394 567.444 200.441 567.784 200.51L567.907 200.439L566.345 199.537L568.541 198.269L578.142 203.812C578.95 204.279 579.426 204.776 579.569 205.304C579.713 205.832 579.582 206.364 579.176 206.902C578.77 207.439 578.142 207.953 577.293 208.443ZM571.69 205.187C572.162 204.914 572.449 204.616 572.551 204.292C572.654 203.967 572.576 203.631 572.318 203.283C572.059 202.935 571.629 202.587 571.026 202.239C570.431 201.896 569.824 201.645 569.205 201.486C568.59 201.325 567.994 201.27 567.415 201.319C566.837 201.364 566.308 201.525 565.829 201.802C565.332 202.089 565.047 202.403 564.974 202.743C564.9 203.084 565.004 203.434 565.287 203.791C565.566 204.146 565.99 204.488 566.56 204.817C567.139 205.151 567.729 205.395 568.332 205.549C568.935 205.698 569.523 205.747 570.097 205.694C570.671 205.638 571.202 205.468 571.69 205.187ZM584.637 200.098C583.69 200.645 582.675 201.003 581.593 201.174C580.51 201.34 579.422 201.319 578.327 201.114C577.228 200.905 576.184 200.516 575.196 199.945C574.224 199.384 573.556 198.785 573.191 198.148C572.826 197.507 572.773 196.875 573.031 196.252C573.285 195.627 573.863 195.054 574.766 194.533C575.348 194.197 575.992 193.934 576.697 193.745C577.402 193.551 578.148 193.451 578.936 193.447C579.727 193.44 580.539 193.544 581.371 193.759C582.2 193.972 583.028 194.318 583.856 194.796L584.539 195.19L576.795 199.661L575.295 198.795L580.904 195.556C580.473 195.312 580.002 195.146 579.489 195.059C578.973 194.969 578.456 194.962 577.939 195.038C577.427 195.111 576.957 195.271 576.531 195.517C576.076 195.78 575.787 196.074 575.664 196.401C575.536 196.726 575.555 197.046 575.719 197.364C575.883 197.676 576.174 197.955 576.592 198.202L577.902 198.958C578.452 199.275 579.024 199.489 579.618 199.601C580.209 199.71 580.789 199.72 581.359 199.633C581.925 199.543 582.45 199.358 582.934 199.079C583.258 198.892 583.506 198.696 583.678 198.493C583.846 198.287 583.936 198.076 583.949 197.861C583.961 197.645 583.883 197.432 583.715 197.221L586.028 196.156C586.446 196.549 586.675 196.971 586.716 197.42C586.757 197.865 586.606 198.318 586.261 198.777C585.913 199.234 585.371 199.674 584.637 200.098ZM590.538 196.478L581.09 191.024L583.218 189.795L584.824 190.722L584.934 190.658C584.59 190.232 584.493 189.8 584.645 189.362C584.793 188.922 585.182 188.519 585.814 188.155C586.454 187.785 587.149 187.564 587.899 187.49C588.649 187.412 589.381 187.475 590.095 187.679L590.193 187.622C589.877 187.198 589.812 186.753 589.996 186.287C590.181 185.816 590.616 185.382 591.3 184.987C592.17 184.485 593.154 184.234 594.253 184.234C595.352 184.234 596.428 184.538 597.482 185.147L603.823 188.808L601.59 190.097L595.594 186.635C595.007 186.296 594.423 186.139 593.841 186.162C593.254 186.184 592.735 186.325 592.284 186.585C591.747 186.895 591.495 187.235 591.528 187.604C591.561 187.969 591.844 188.305 592.377 188.613L598.269 192.015L596.086 193.275L589.996 189.76C589.508 189.478 588.971 189.338 588.385 189.341C587.803 189.341 587.276 189.477 586.804 189.749C586.484 189.934 586.275 190.149 586.177 190.395C586.074 190.639 586.093 190.891 586.232 191.152C586.367 191.41 586.63 191.651 587.019 191.876L592.764 195.193L590.538 196.478ZM610.449 185.196C609.502 185.742 608.487 186.101 607.404 186.272C606.322 186.437 605.233 186.417 604.138 186.211C603.04 186.003 601.996 185.613 601.008 185.043C600.036 184.482 599.368 183.883 599.003 183.246C598.638 182.604 598.584 181.972 598.843 181.35C599.097 180.725 599.675 180.152 600.577 179.631C601.159 179.295 601.803 179.032 602.508 178.843C603.214 178.648 603.96 178.549 604.747 178.544C605.539 178.537 606.351 178.641 607.183 178.857C608.011 179.07 608.84 179.415 609.668 179.894L610.351 180.288L602.607 184.759L601.106 183.892L606.716 180.654C606.285 180.41 605.813 180.244 605.301 180.156C604.784 180.067 604.268 180.059 603.751 180.135C603.238 180.209 602.769 180.368 602.342 180.615C601.887 180.877 601.598 181.172 601.475 181.499C601.348 181.823 601.367 182.144 601.531 182.461C601.695 182.774 601.986 183.053 602.404 183.299L603.714 184.056C604.264 184.373 604.836 184.587 605.43 184.698C606.021 184.807 606.601 184.818 607.171 184.73C607.737 184.64 608.261 184.456 608.745 184.176C609.069 183.989 609.317 183.794 609.49 183.59C609.658 183.384 609.748 183.174 609.76 182.958C609.773 182.743 609.695 182.53 609.526 182.319L611.839 181.254C612.257 181.647 612.487 182.068 612.528 182.518C612.569 182.963 612.417 183.415 612.073 183.875C611.724 184.331 611.183 184.772 610.449 185.196ZM613.04 177.095L618.576 180.291L616.349 181.576L606.902 176.122L609.03 174.893L610.635 175.82L610.746 175.756C610.434 175.325 610.36 174.882 610.524 174.428C610.693 173.971 611.129 173.539 611.835 173.131C612.487 172.755 613.194 172.508 613.957 172.389C614.723 172.269 615.505 172.284 616.3 172.435C617.1 172.585 617.875 172.878 618.625 173.316L624.64 176.789L622.414 178.075L616.743 174.8C616.111 174.436 615.453 174.245 614.768 174.229C614.088 174.21 613.46 174.366 612.886 174.698C612.497 174.922 612.236 175.172 612.105 175.447C611.974 175.717 611.982 175.994 612.13 176.278C612.282 176.559 612.585 176.832 613.04 177.095ZM622.174 167.304L623.896 168.298L618.465 171.434L616.743 170.44L622.174 167.304ZM615.82 168.359L618.047 167.073L626.916 172.194C627.216 172.367 627.49 172.473 627.74 172.514C627.991 172.549 628.22 172.54 628.429 172.485C628.638 172.431 628.835 172.35 629.02 172.244C629.159 172.163 629.276 172.084 629.37 172.006C629.469 171.925 629.541 171.863 629.586 171.818L631.701 172.606C631.624 172.698 631.499 172.823 631.326 172.979C631.158 173.133 630.92 173.303 630.613 173.49C630.072 173.822 629.485 174.063 628.854 174.215C628.218 174.364 627.572 174.4 626.916 174.325C626.264 174.247 625.645 174.036 625.059 173.693L615.82 168.359Z" fill="#332424"/>
<path d="M461.409 357.534C460.814 357.257 460.154 357.155 459.428 357.228C458.707 357.299 458.007 357.53 457.331 357.921C456.855 358.195 456.519 358.472 456.322 358.752C456.125 359.031 456.06 359.294 456.125 359.54C456.191 359.786 456.38 360.002 456.691 360.186C456.954 360.338 457.241 360.435 457.552 360.478C457.868 360.518 458.198 360.517 458.543 360.474C458.883 360.429 459.225 360.359 459.57 360.264C459.914 360.17 460.246 360.066 460.566 359.952L462.042 359.441C462.629 359.23 463.236 359.052 463.863 358.908C464.494 358.761 465.128 358.67 465.764 358.634C466.403 358.597 467.029 358.636 467.64 358.752C468.251 358.868 468.829 359.083 469.374 359.398C470.112 359.824 470.573 360.308 470.758 360.85C470.938 361.39 470.83 361.957 470.432 362.551C470.034 363.141 469.331 363.727 468.322 364.309C467.342 364.875 466.34 365.279 465.315 365.52C464.294 365.759 463.289 365.828 462.301 365.726C461.317 365.622 460.39 365.338 459.521 364.874L461.766 363.578C462.237 363.812 462.737 363.945 463.266 363.975C463.795 364.006 464.322 363.953 464.847 363.816C465.376 363.676 465.878 363.469 466.354 363.194C466.85 362.908 467.211 362.614 467.437 362.313C467.662 362.008 467.748 361.717 467.695 361.44C467.638 361.161 467.43 360.915 467.074 360.705C466.742 360.518 466.375 360.417 465.973 360.403C465.567 360.386 465.122 360.435 464.638 360.549C464.154 360.657 463.629 360.809 463.063 361.003L461.261 361.617C459.957 362.063 458.733 362.303 457.589 362.338C456.445 362.369 455.422 362.124 454.52 361.603C453.778 361.175 453.329 360.683 453.173 360.13C453.021 359.573 453.14 359.005 453.53 358.425C453.915 357.843 454.549 357.297 455.43 356.788C456.324 356.272 457.263 355.91 458.247 355.701C459.231 355.488 460.191 355.429 461.126 355.524C462.057 355.616 462.883 355.863 463.605 356.266L461.409 357.534ZM479.152 358.049C478.23 358.582 477.227 358.927 476.145 359.083C475.062 359.239 473.969 359.214 472.866 359.008C471.767 358.8 470.73 358.414 469.754 357.851C468.778 357.287 468.108 356.687 467.743 356.05C467.382 355.411 467.337 354.779 467.607 354.154C467.878 353.529 468.475 352.95 469.397 352.417C470.32 351.885 471.322 351.54 472.405 351.384C473.487 351.228 474.58 351.255 475.683 351.466C476.79 351.674 477.832 352.06 478.808 352.623C479.784 353.187 480.45 353.787 480.807 354.424C481.168 355.058 481.213 355.688 480.942 356.313C480.671 356.938 480.075 357.517 479.152 358.049ZM477.381 357.012C477.881 356.724 478.162 356.403 478.223 356.05C478.281 355.695 478.158 355.335 477.854 354.971C477.555 354.604 477.118 354.254 476.544 353.923C475.966 353.589 475.359 353.336 474.724 353.163C474.088 352.986 473.463 352.913 472.848 352.946C472.233 352.98 471.675 353.141 471.175 353.429C470.662 353.725 470.375 354.052 470.314 354.41C470.256 354.765 470.379 355.127 470.683 355.496C470.986 355.861 471.427 356.21 472.005 356.544C472.579 356.875 473.182 357.128 473.813 357.304C474.449 357.477 475.074 357.546 475.689 357.513C476.304 357.475 476.868 357.308 477.381 357.012ZM489.69 351.965C488.747 352.51 487.73 352.858 486.639 353.009C485.553 353.159 484.462 353.128 483.367 352.917C482.272 352.702 481.247 352.318 480.292 351.767C479.332 351.213 478.67 350.617 478.305 349.98C477.936 349.341 477.883 348.709 478.145 348.084C478.407 347.454 479 346.873 479.923 346.34C480.689 345.898 481.51 345.588 482.383 345.41C483.256 345.228 484.126 345.183 484.991 345.275C485.852 345.365 486.647 345.592 487.377 345.957L485.249 347.186C484.708 346.973 484.124 346.872 483.496 346.884C482.869 346.891 482.287 347.049 481.749 347.36C481.294 347.622 481.017 347.924 480.919 348.265C480.817 348.604 480.896 348.96 481.159 349.334C481.425 349.706 481.876 350.075 482.512 350.442C483.156 350.814 483.804 351.079 484.456 351.237C485.104 351.394 485.723 351.446 486.313 351.394C486.904 351.337 487.431 351.175 487.894 350.907C488.222 350.718 488.454 350.513 488.589 350.293C488.724 350.068 488.761 349.836 488.7 349.597C488.638 349.358 488.47 349.121 488.195 348.887L490.324 347.658C490.939 348.075 491.334 348.53 491.511 349.025C491.683 349.518 491.621 350.017 491.326 350.524C491.027 351.028 490.481 351.509 489.69 351.965ZM495.381 348.467L485.933 343.012L488.16 341.727L497.608 347.181L495.381 348.467ZM485.712 341.592C485.359 341.795 484.939 341.903 484.451 341.915C483.959 341.924 483.547 341.833 483.215 341.641C482.879 341.447 482.721 341.209 482.741 340.928C482.758 340.644 482.942 340.4 483.295 340.196C483.652 339.99 484.074 339.884 484.562 339.876C485.05 339.865 485.462 339.956 485.798 340.15C486.13 340.342 486.288 340.58 486.272 340.864C486.255 341.143 486.069 341.386 485.712 341.592ZM502.806 344.4C502.208 344.745 501.562 344.995 500.869 345.149C500.176 345.298 499.479 345.331 498.778 345.248C498.081 345.163 497.423 344.942 496.803 344.584C496.27 344.277 495.928 343.965 495.776 343.65C495.624 343.336 495.614 343.02 495.745 342.702C495.877 342.385 496.102 342.073 496.422 341.765C496.742 341.452 497.107 341.149 497.517 340.856C498.013 340.503 498.411 340.214 498.71 339.989C499.005 339.762 499.182 339.575 499.239 339.428C499.296 339.277 499.219 339.139 499.005 339.016L498.968 338.995C498.505 338.727 498.009 338.6 497.48 338.611C496.951 338.623 496.428 338.778 495.911 339.077C495.366 339.391 495.052 339.71 494.97 340.032C494.893 340.351 494.96 340.637 495.173 340.888L492.799 341.918C492.389 341.491 492.18 341.058 492.172 340.618C492.16 340.175 492.33 339.741 492.682 339.315C493.031 338.886 493.535 338.481 494.195 338.1C494.651 337.837 495.157 337.606 495.715 337.408C496.272 337.209 496.861 337.073 497.48 336.999C498.095 336.923 498.724 336.941 499.368 337.052C500.016 337.161 500.654 337.397 501.281 337.759L507.604 341.41L505.464 342.645L504.166 341.896L504.092 341.939C504.219 342.168 504.274 342.421 504.258 342.695C504.242 342.965 504.119 343.247 503.889 343.54C503.659 343.829 503.299 344.116 502.806 344.4ZM501.749 343.121C502.195 342.863 502.495 342.589 502.647 342.297C502.794 342.004 502.809 341.721 502.69 341.449C502.575 341.174 502.343 340.936 501.995 340.735L500.881 340.092C500.869 340.166 500.803 340.265 500.684 340.391C500.57 340.514 500.428 340.645 500.26 340.785C500.092 340.924 499.922 341.06 499.75 341.193C499.577 341.326 499.428 341.44 499.301 341.538C499.014 341.755 498.79 341.97 498.63 342.18C498.47 342.391 498.407 342.593 498.439 342.788C498.468 342.979 498.626 343.158 498.913 343.324C499.323 343.56 499.782 343.653 500.291 343.601C500.799 343.549 501.285 343.389 501.749 343.121ZM499.473 331.559L512.069 338.832L509.843 340.117L497.246 332.844L499.473 331.559ZM518.619 325.15C518.184 325.017 517.745 324.927 517.302 324.88C516.859 324.828 516.419 324.82 515.98 324.855C515.545 324.888 515.121 324.97 514.707 325.1C514.288 325.228 513.891 325.401 513.513 325.619C512.837 326.009 512.404 326.456 512.216 326.957C512.027 327.459 512.111 327.988 512.468 328.545C512.825 329.096 513.474 329.644 514.418 330.189C515.369 330.738 516.324 331.117 517.284 331.325C518.243 331.534 519.162 331.583 520.039 331.474C520.913 331.363 521.702 331.104 522.407 330.697C523.047 330.327 523.478 329.937 523.699 329.525C523.925 329.111 523.939 328.7 523.742 328.293C523.541 327.883 523.135 327.502 522.524 327.149L523.121 326.897L519.701 328.872L517.917 327.842L523.029 324.891L524.542 325.764C525.62 326.387 526.323 327.058 526.651 327.778C526.979 328.497 526.955 329.212 526.578 329.923C526.196 330.631 525.485 331.285 524.443 331.886C523.283 332.556 522.003 332.994 520.605 333.2C519.207 333.402 517.78 333.366 516.324 333.094C514.869 332.817 513.476 332.295 512.148 331.528C511.131 330.941 510.366 330.333 509.854 329.706C509.345 329.076 509.073 328.45 509.036 327.827C508.995 327.202 509.179 326.604 509.589 326.031C509.995 325.455 510.61 324.93 511.434 324.454C512.132 324.051 512.884 323.735 513.692 323.506C514.495 323.274 515.318 323.131 516.158 323.076C517.003 323.019 517.833 323.051 518.649 323.172C519.465 323.293 520.23 323.505 520.943 323.808L518.619 325.15ZM531.73 327.48L522.283 322.026L524.442 320.779L526.016 321.688L526.115 321.632C525.742 321.217 525.617 320.804 525.74 320.392C525.863 319.976 526.195 319.611 526.736 319.299C526.859 319.228 527.002 319.152 527.167 319.071C527.331 318.986 527.474 318.92 527.597 318.872L529.645 320.055C529.518 320.09 529.34 320.16 529.11 320.264C528.881 320.364 528.671 320.468 528.483 320.577C528.077 320.811 527.8 321.073 527.652 321.362C527.505 321.646 527.493 321.93 527.616 322.214C527.739 322.498 528.001 322.756 528.403 322.988L533.957 326.195L531.73 327.48ZM541.338 322.154C540.739 322.499 540.093 322.749 539.4 322.903C538.707 323.052 538.01 323.085 537.309 323.002C536.612 322.917 535.954 322.696 535.335 322.338C534.802 322.031 534.459 321.719 534.308 321.404C534.156 321.089 534.146 320.773 534.277 320.456C534.408 320.139 534.634 319.826 534.953 319.519C535.273 319.206 535.638 318.903 536.048 318.61C536.544 318.257 536.942 317.968 537.241 317.743C537.537 317.516 537.713 317.329 537.77 317.182C537.828 317.031 537.75 316.893 537.537 316.77L537.5 316.749C537.036 316.481 536.54 316.353 536.011 316.365C535.482 316.377 534.96 316.532 534.443 316.83C533.897 317.145 533.584 317.464 533.502 317.786C533.424 318.105 533.492 318.391 533.705 318.642L531.331 319.671C530.921 319.245 530.711 318.812 530.703 318.372C530.691 317.929 530.861 317.495 531.214 317.068C531.562 316.64 532.067 316.235 532.727 315.854C533.182 315.591 533.688 315.36 534.246 315.161C534.804 314.963 535.392 314.826 536.011 314.753C536.626 314.677 537.256 314.695 537.9 314.806C538.547 314.915 539.185 315.151 539.812 315.513L546.135 319.164L543.995 320.399L542.697 319.65L542.623 319.693C542.75 319.922 542.806 320.174 542.789 320.449C542.773 320.719 542.65 321.001 542.42 321.294C542.191 321.583 541.83 321.87 541.338 322.154ZM540.28 320.875C540.727 320.617 541.026 320.343 541.178 320.051C541.326 319.758 541.34 319.475 541.221 319.203C541.106 318.928 540.874 318.69 540.526 318.489L539.413 317.846C539.4 317.92 539.335 318.019 539.216 318.144C539.101 318.268 538.96 318.399 538.791 318.539C538.623 318.678 538.453 318.814 538.281 318.947C538.109 319.08 537.959 319.194 537.832 319.291C537.545 319.509 537.321 319.723 537.161 319.934C537.002 320.145 536.938 320.347 536.971 320.541C537 320.733 537.157 320.912 537.444 321.078C537.854 321.314 538.314 321.407 538.822 321.355C539.331 321.303 539.817 321.143 540.28 320.875ZM551.917 319.916L538.927 312.416L541.116 311.152L542.679 312.054L542.808 311.98C542.693 311.781 542.611 311.546 542.562 311.277C542.509 311.004 542.568 310.712 542.74 310.399C542.908 310.085 543.269 309.767 543.823 309.448C544.553 309.026 545.397 308.754 546.357 308.631C547.316 308.503 548.331 308.549 549.401 308.769C550.472 308.985 551.532 309.396 552.581 310.002C553.619 310.601 554.33 311.208 554.716 311.823C555.101 312.439 555.191 313.026 554.986 313.585C554.781 314.143 554.308 314.637 553.566 315.066C553.024 315.378 552.485 315.585 551.948 315.687C551.411 315.789 550.906 315.829 550.435 315.808C549.963 315.782 549.553 315.737 549.205 315.673L549.112 315.726L554.144 318.631L551.917 319.916ZM545.834 313.883C546.445 314.236 547.066 314.495 547.698 314.661C548.333 314.824 548.944 314.886 549.531 314.845C550.117 314.8 550.646 314.642 551.118 314.37C551.61 314.085 551.89 313.772 551.96 313.429C552.026 313.083 551.913 312.729 551.622 312.367C551.331 312 550.89 311.646 550.299 311.305C549.713 310.966 549.108 310.714 548.485 310.549C547.862 310.383 547.255 310.321 546.664 310.364C546.074 310.406 545.531 310.571 545.034 310.857C544.559 311.132 544.28 311.438 544.198 311.774C544.116 312.11 544.214 312.458 544.493 312.818C544.776 313.175 545.223 313.53 545.834 313.883ZM555.891 307.139L561.426 310.335L559.2 311.621L546.603 304.348L548.78 303.091L553.535 305.836L553.645 305.772C553.334 305.337 553.256 304.896 553.412 304.451C553.568 304.001 554.006 303.568 554.728 303.152C555.384 302.773 556.093 302.522 556.856 302.399C557.619 302.276 558.398 302.29 559.193 302.441C559.993 302.59 560.774 302.885 561.537 303.326L567.552 306.799L565.326 308.084L559.655 304.81C559.019 304.443 558.361 304.252 557.68 304.238C557 304.219 556.366 304.379 555.78 304.718C555.386 304.945 555.12 305.198 554.98 305.478C554.841 305.752 554.843 306.033 554.986 306.319C555.134 306.603 555.435 306.877 555.891 307.139Z" fill="white"/>
<path d="M253.697 400.759L241.1 393.487L245.824 390.759C246.792 390.201 247.772 389.829 248.764 389.644C249.76 389.457 250.73 389.442 251.673 389.598C252.616 389.75 253.49 390.058 254.294 390.522C255.101 390.988 255.63 391.492 255.88 392.034C256.131 392.572 256.085 393.126 255.745 393.696C255.401 394.264 254.745 394.828 253.777 395.387L250.412 397.329L248.518 396.235L251.575 394.47C252.141 394.144 252.526 393.831 252.731 393.533C252.932 393.232 252.967 392.945 252.836 392.67C252.705 392.391 252.416 392.122 251.969 391.864C251.522 391.606 251.052 391.437 250.56 391.356C250.064 391.273 249.553 391.289 249.029 391.402C248.5 391.514 247.95 391.734 247.38 392.063L245.289 393.27L255.979 399.442L253.697 400.759ZM254.497 393.707L263.323 395.202L260.776 396.672L252.005 395.145L254.497 393.707ZM269.095 392.082C268.148 392.629 267.133 392.988 266.051 393.158C264.968 393.324 263.879 393.304 262.785 393.098C261.686 392.89 260.642 392.5 259.654 391.93C258.682 391.368 258.014 390.77 257.649 390.133C257.284 389.491 257.231 388.859 257.489 388.236C257.743 387.611 258.321 387.038 259.223 386.518C259.806 386.181 260.449 385.919 261.155 385.729C261.86 385.535 262.606 385.436 263.394 385.431C264.185 385.424 264.997 385.528 265.829 385.743C266.658 385.957 267.486 386.302 268.314 386.78L268.997 387.175L261.253 391.645L259.752 390.779L265.362 387.54C264.931 387.297 264.46 387.131 263.947 387.043C263.43 386.953 262.914 386.946 262.397 387.022C261.885 387.095 261.415 387.255 260.989 387.501C260.533 387.764 260.244 388.059 260.121 388.386C259.994 388.71 260.013 389.031 260.177 389.348C260.341 389.66 260.632 389.94 261.05 390.186L262.36 390.942C262.91 391.26 263.482 391.474 264.076 391.585C264.667 391.694 265.247 391.705 265.817 391.617C266.383 391.527 266.908 391.342 267.392 391.063C267.716 390.876 267.964 390.681 268.136 390.477C268.304 390.271 268.394 390.06 268.406 389.845C268.419 389.63 268.341 389.417 268.173 389.206L270.485 388.141C270.904 388.534 271.133 388.955 271.174 389.405C271.215 389.85 271.064 390.302 270.719 390.761C270.371 391.218 269.829 391.659 269.095 392.082ZM278.538 390.508L265.548 383.008L267.738 381.744L269.3 382.646L269.429 382.571C269.314 382.373 269.232 382.138 269.183 381.868C269.13 381.596 269.189 381.304 269.361 380.991C269.529 380.676 269.89 380.359 270.444 380.039C271.174 379.618 272.018 379.346 272.978 379.223C273.938 379.095 274.952 379.141 276.023 379.361C277.093 379.577 278.153 379.987 279.203 380.593C280.24 381.192 280.951 381.8 281.337 382.415C281.722 383.031 281.813 383.618 281.607 384.177C281.402 384.735 280.929 385.229 280.187 385.657C279.645 385.97 279.106 386.177 278.569 386.279C278.032 386.381 277.527 386.421 277.056 386.4C276.584 386.374 276.174 386.329 275.826 386.265L275.734 386.318L280.765 389.223L278.538 390.508ZM272.455 384.475C273.066 384.828 273.687 385.087 274.319 385.253C274.954 385.416 275.565 385.477 276.152 385.437C276.738 385.392 277.267 385.234 277.739 384.961C278.231 384.677 278.512 384.364 278.581 384.02C278.647 383.675 278.534 383.321 278.243 382.959C277.952 382.592 277.511 382.238 276.921 381.897C276.334 381.558 275.729 381.306 275.106 381.14C274.483 380.975 273.876 380.913 273.286 380.956C272.695 380.998 272.152 381.163 271.656 381.449C271.18 381.724 270.901 382.029 270.819 382.365C270.737 382.702 270.835 383.05 271.114 383.41C271.397 383.767 271.844 384.122 272.455 384.475ZM275.451 373.655L288.047 380.927L285.821 382.213L273.224 374.94L275.451 373.655ZM290.337 379.605L280.889 374.151L283.116 372.865L292.564 378.32L290.337 379.605ZM280.668 372.73C280.315 372.934 279.895 373.042 279.407 373.054C278.915 373.063 278.503 372.972 278.171 372.78C277.835 372.586 277.677 372.348 277.697 372.066C277.714 371.782 277.898 371.538 278.251 371.335C278.607 371.129 279.03 371.022 279.518 371.015C280.006 371.003 280.418 371.094 280.754 371.289C281.086 371.48 281.244 371.718 281.228 372.002C281.211 372.282 281.025 372.524 280.668 372.73ZM299.22 374.69C298.273 375.237 297.258 375.595 296.176 375.766C295.093 375.931 294.004 375.911 292.909 375.705C291.811 375.497 290.767 375.108 289.779 374.537C288.807 373.976 288.139 373.377 287.774 372.74C287.409 372.099 287.355 371.466 287.614 370.844C287.868 370.219 288.446 369.646 289.348 369.125C289.93 368.789 290.574 368.526 291.28 368.337C291.985 368.143 292.731 368.043 293.518 368.038C294.31 368.031 295.122 368.135 295.954 368.351C296.782 368.564 297.611 368.91 298.439 369.388L299.122 369.782L291.378 374.253L289.877 373.386L295.487 370.148C295.056 369.904 294.585 369.738 294.072 369.651C293.555 369.561 293.039 369.554 292.522 369.629C292.009 369.703 291.54 369.863 291.113 370.109C290.658 370.372 290.369 370.666 290.246 370.993C290.119 371.317 290.138 371.638 290.302 371.955C290.466 372.268 290.757 372.547 291.175 372.793L292.485 373.55C293.035 373.867 293.607 374.081 294.201 374.193C294.792 374.301 295.372 374.312 295.942 374.224C296.508 374.135 297.033 373.95 297.516 373.671C297.84 373.483 298.088 373.288 298.261 373.085C298.429 372.879 298.519 372.668 298.531 372.452C298.544 372.237 298.466 372.024 298.298 371.813L300.61 370.748C301.028 371.141 301.258 371.562 301.299 372.012C301.34 372.457 301.188 372.909 300.844 373.369C300.495 373.826 299.954 374.266 299.22 374.69ZM305.637 362.746L303.829 364.046C303.566 363.961 303.273 363.908 302.949 363.886C302.629 363.863 302.295 363.887 301.946 363.961C301.598 364.034 301.251 364.17 300.907 364.369C300.444 364.637 300.155 364.92 300.04 365.218C299.929 365.514 300.036 365.753 300.36 365.935C300.63 366.096 300.954 366.167 301.331 366.148C301.713 366.127 302.199 366.01 302.789 365.797L304.745 365.065C305.832 364.66 306.801 364.453 307.654 364.444C308.511 364.432 309.28 364.62 309.961 365.008C310.551 365.354 310.902 365.758 311.013 366.219C311.123 366.676 311.002 367.153 310.65 367.65C310.297 368.148 309.727 368.623 308.94 369.078C307.784 369.746 306.611 370.143 305.422 370.271C304.228 370.397 303.129 370.248 302.125 369.824L304.087 368.449C304.612 368.639 305.143 368.704 305.68 368.645C306.217 368.586 306.742 368.408 307.255 368.112C307.784 367.807 308.099 367.499 308.202 367.189C308.308 366.876 308.202 366.628 307.882 366.443C307.611 366.287 307.283 366.218 306.898 366.237C306.516 366.254 306.061 366.36 305.532 366.557L303.583 367.292C302.488 367.706 301.5 367.91 300.618 367.903C299.732 367.893 298.947 367.688 298.262 367.288C297.676 366.954 297.329 366.572 297.223 366.141C297.116 365.706 297.233 365.255 297.573 364.788C297.914 364.317 298.461 363.864 299.216 363.428C300.323 362.789 301.43 362.422 302.537 362.327C303.648 362.23 304.682 362.37 305.637 362.746Z" fill="white"/>
<path d="M228.697 311.259L216.1 303.987L220.824 301.259C221.792 300.701 222.772 300.329 223.764 300.144C224.76 299.957 225.73 299.942 226.673 300.098C227.616 300.25 228.49 300.558 229.293 301.022C230.101 301.488 230.63 301.992 230.88 302.534C231.13 303.072 231.085 303.626 230.745 304.196C230.401 304.764 229.744 305.328 228.777 305.887L225.412 307.829L223.518 306.735L226.575 304.97C227.141 304.644 227.526 304.331 227.731 304.033C227.932 303.732 227.967 303.445 227.836 303.17C227.704 302.891 227.415 302.622 226.968 302.364C226.521 302.106 226.052 301.937 225.56 301.856C225.064 301.773 224.553 301.789 224.028 301.902C223.499 302.014 222.95 302.234 222.38 302.563L220.289 303.77L230.979 309.942L228.697 311.259ZM229.496 304.207L238.323 305.702L235.776 307.172L227.005 305.645L229.496 304.207ZM244.095 302.582C243.148 303.129 242.133 303.488 241.051 303.658C239.968 303.824 238.879 303.804 237.785 303.598C236.686 303.39 235.642 303 234.654 302.43C233.682 301.868 233.014 301.27 232.649 300.633C232.284 299.991 232.23 299.359 232.489 298.736C232.743 298.111 233.321 297.538 234.223 297.018C234.806 296.681 235.449 296.419 236.155 296.229C236.86 296.035 237.606 295.936 238.393 295.931C239.185 295.924 239.997 296.028 240.829 296.243C241.657 296.457 242.486 296.802 243.314 297.28L243.997 297.675L236.253 302.145L234.752 301.279L240.362 298.04C239.931 297.797 239.46 297.631 238.947 297.543C238.43 297.453 237.914 297.446 237.397 297.522C236.884 297.595 236.415 297.755 235.989 298.001C235.533 298.264 235.244 298.559 235.121 298.886C234.994 299.21 235.013 299.531 235.177 299.848C235.341 300.16 235.632 300.44 236.05 300.686L237.36 301.442C237.91 301.76 238.482 301.974 239.076 302.085C239.667 302.194 240.247 302.205 240.817 302.117C241.383 302.027 241.908 301.842 242.391 301.563C242.715 301.376 242.963 301.181 243.136 300.977C243.304 300.771 243.394 300.56 243.406 300.345C243.419 300.13 243.341 299.917 243.173 299.706L245.485 298.641C245.904 299.034 246.133 299.455 246.174 299.905C246.215 300.35 246.063 300.802 245.719 301.261C245.37 301.718 244.829 302.159 244.095 302.582ZM252.905 297.503C252.306 297.849 251.66 298.099 250.967 298.253C250.274 298.402 249.577 298.435 248.876 298.352C248.179 298.267 247.521 298.045 246.901 297.688C246.368 297.38 246.026 297.069 245.874 296.754C245.723 296.439 245.712 296.123 245.844 295.806C245.975 295.489 246.2 295.176 246.52 294.868C246.84 294.556 247.205 294.253 247.615 293.959C248.111 293.606 248.509 293.318 248.808 293.093C249.103 292.865 249.28 292.678 249.337 292.532C249.395 292.38 249.317 292.243 249.103 292.12L249.067 292.098C248.603 291.831 248.107 291.703 247.578 291.715C247.049 291.727 246.526 291.882 246.01 292.18C245.464 292.495 245.151 292.813 245.069 293.135C244.991 293.455 245.058 293.74 245.272 293.991L242.897 295.021C242.487 294.595 242.278 294.162 242.27 293.721C242.258 293.279 242.428 292.844 242.78 292.418C243.129 291.99 243.633 291.585 244.294 291.204C244.749 290.941 245.255 290.71 245.813 290.511C246.37 290.312 246.959 290.176 247.578 290.103C248.193 290.027 248.823 290.045 249.466 290.156C250.114 290.265 250.752 290.5 251.379 290.863L257.702 294.513L255.562 295.749L254.264 295L254.19 295.042C254.317 295.272 254.373 295.524 254.356 295.799C254.34 296.069 254.217 296.35 253.987 296.644C253.758 296.933 253.397 297.219 252.905 297.503ZM251.847 296.225C252.294 295.967 252.593 295.692 252.745 295.401C252.892 295.107 252.907 294.825 252.788 294.552C252.673 294.278 252.441 294.04 252.093 293.838L250.979 293.196C250.967 293.269 250.902 293.369 250.783 293.494C250.668 293.617 250.526 293.749 250.358 293.888C250.19 294.028 250.02 294.164 249.848 294.297C249.675 294.429 249.526 294.544 249.399 294.641C249.112 294.859 248.888 295.073 248.728 295.284C248.568 295.495 248.505 295.697 248.538 295.891C248.566 296.083 248.724 296.262 249.011 296.427C249.421 296.664 249.881 296.756 250.389 296.704C250.897 296.652 251.383 296.492 251.847 296.225ZM264.247 290.948C263.303 291.492 262.287 291.84 261.196 291.992C260.109 292.141 259.018 292.11 257.924 291.9C256.829 291.684 255.804 291.301 254.848 290.749C253.889 290.195 253.227 289.6 252.862 288.963C252.493 288.324 252.439 287.691 252.702 287.066C252.964 286.437 253.557 285.856 254.479 285.323C255.246 284.88 256.066 284.57 256.94 284.392C257.813 284.21 258.682 284.165 259.547 284.258C260.409 284.347 261.204 284.575 261.934 284.939L259.806 286.168C259.264 285.955 258.68 285.854 258.053 285.866C257.425 285.873 256.843 286.032 256.306 286.342C255.851 286.605 255.574 286.907 255.476 287.248C255.373 287.586 255.453 287.942 255.716 288.316C255.982 288.688 256.433 289.057 257.069 289.424C257.712 289.796 258.36 290.061 259.012 290.22C259.66 290.376 260.279 290.428 260.87 290.376C261.46 290.319 261.987 290.157 262.451 289.89C262.779 289.7 263.01 289.495 263.146 289.275C263.281 289.05 263.318 288.818 263.256 288.579C263.195 288.34 263.027 288.103 262.752 287.869L264.88 286.64C265.495 287.057 265.891 287.513 266.067 288.008C266.239 288.5 266.178 288.999 265.883 289.506C265.583 290.01 265.038 290.491 264.247 290.948ZM265.208 279.271L266.93 280.265L261.499 283.401L259.777 282.406L265.208 279.271ZM258.854 280.326L261.081 279.04L269.95 284.161C270.249 284.334 270.524 284.44 270.774 284.48C271.024 284.516 271.254 284.506 271.463 284.452C271.672 284.397 271.869 284.317 272.053 284.21C272.193 284.13 272.31 284.051 272.404 283.973C272.502 283.892 272.574 283.829 272.619 283.784L274.735 284.573C274.657 284.665 274.532 284.789 274.36 284.946C274.192 285.099 273.954 285.27 273.646 285.457C273.105 285.788 272.519 286.03 271.887 286.181C271.252 286.33 270.606 286.367 269.95 286.291C269.298 286.213 268.679 286.003 268.092 285.659L258.854 280.326ZM276.517 283.65L267.07 278.196L269.296 276.91L278.744 282.365L276.517 283.65ZM266.848 276.775C266.496 276.979 266.075 277.087 265.587 277.098C265.095 277.108 264.683 277.017 264.351 276.825C264.015 276.631 263.857 276.393 263.878 276.111C263.894 275.827 264.078 275.583 264.431 275.38C264.788 275.174 265.21 275.067 265.698 275.06C266.186 275.048 266.598 275.139 266.934 275.334C267.267 275.525 267.424 275.763 267.408 276.047C267.392 276.327 267.205 276.569 266.848 276.775ZM285.339 278.77C284.416 279.303 283.414 279.647 282.331 279.804C281.249 279.96 280.156 279.935 279.053 279.729C277.954 279.521 276.917 279.135 275.941 278.571C274.965 278.008 274.294 277.408 273.929 276.771C273.569 276.132 273.523 275.5 273.794 274.875C274.065 274.25 274.661 273.671 275.584 273.138C276.507 272.605 277.509 272.261 278.592 272.105C279.674 271.948 280.767 271.976 281.87 272.186C282.977 272.395 284.019 272.781 284.995 273.344C285.971 273.907 286.637 274.508 286.994 275.144C287.354 275.779 287.4 276.409 287.129 277.034C286.858 277.659 286.262 278.237 285.339 278.77ZM283.568 277.733C284.068 277.444 284.349 277.124 284.41 276.771C284.468 276.416 284.345 276.056 284.041 275.691C283.742 275.324 283.305 274.975 282.731 274.644C282.153 274.31 281.546 274.057 280.911 273.884C280.275 273.706 279.65 273.634 279.035 273.667C278.419 273.7 277.862 273.861 277.362 274.15C276.849 274.446 276.562 274.773 276.5 275.13C276.443 275.485 276.566 275.848 276.869 276.217C277.173 276.581 277.614 276.931 278.192 277.264C278.766 277.596 279.369 277.849 280 278.024C280.636 278.197 281.261 278.267 281.876 278.234C282.491 278.196 283.055 278.029 283.568 277.733ZM288.262 270.477L293.798 273.673L291.571 274.959L282.124 269.504L284.252 268.276L285.857 269.202L285.968 269.139C285.656 268.708 285.583 268.265 285.747 267.81C285.915 267.354 286.351 266.921 287.057 266.514C287.709 266.138 288.416 265.89 289.179 265.772C289.945 265.651 290.727 265.667 291.522 265.818C292.322 265.967 293.097 266.261 293.847 266.699L299.863 270.172L297.636 271.457L291.965 268.183C291.333 267.819 290.675 267.628 289.991 267.612C289.31 267.593 288.683 267.749 288.108 268.08C287.719 268.305 287.459 268.555 287.327 268.83C287.196 269.099 287.204 269.376 287.352 269.661C287.504 269.942 287.807 270.215 288.262 270.477ZM302.643 260.541L300.834 261.841C300.572 261.756 300.279 261.702 299.955 261.681C299.635 261.658 299.301 261.682 298.952 261.756C298.604 261.829 298.257 261.965 297.913 262.164C297.449 262.432 297.16 262.715 297.045 263.013C296.935 263.309 297.041 263.548 297.365 263.73C297.636 263.891 297.96 263.962 298.337 263.943C298.718 263.922 299.204 263.805 299.795 263.592L301.751 262.86C302.837 262.455 303.807 262.248 304.66 262.239C305.517 262.227 306.286 262.415 306.967 262.803C307.557 263.149 307.908 263.553 308.018 264.014C308.129 264.471 308.008 264.948 307.656 265.445C307.303 265.943 306.733 266.418 305.946 266.873C304.789 267.541 303.617 267.938 302.427 268.066C301.234 268.192 300.135 268.042 299.131 267.619L301.093 266.244C301.618 266.434 302.149 266.499 302.686 266.44C303.223 266.381 303.748 266.203 304.26 265.907C304.789 265.602 305.105 265.294 305.208 264.984C305.314 264.671 305.208 264.423 304.888 264.238C304.617 264.082 304.289 264.013 303.904 264.032C303.522 264.049 303.067 264.155 302.538 264.352L300.588 265.087C299.493 265.501 298.505 265.705 297.624 265.698C296.738 265.688 295.953 265.483 295.268 265.083C294.682 264.749 294.335 264.367 294.228 263.936C294.122 263.501 294.239 263.05 294.579 262.583C294.919 262.112 295.467 261.659 296.221 261.223C297.328 260.584 298.436 260.217 299.543 260.122C300.654 260.025 301.687 260.165 302.643 260.541Z" fill="white"/>
<path d="M306.697 170.759L294.1 163.487L298.824 160.759C299.792 160.201 300.784 159.836 301.801 159.666C302.822 159.493 303.816 159.492 304.784 159.662C305.752 159.828 306.635 160.142 307.435 160.603C308.243 161.07 308.79 161.582 309.077 162.141C309.364 162.7 309.356 163.275 309.053 163.867C308.745 164.456 308.105 165.031 307.134 165.593L304.003 167.4L302.127 166.317L304.95 164.687C305.516 164.36 305.881 164.036 306.045 163.714C306.209 163.392 306.205 163.082 306.033 162.784C305.864 162.483 305.557 162.204 305.11 161.946C304.663 161.688 304.181 161.511 303.664 161.416C303.152 161.319 302.619 161.322 302.065 161.424C301.512 161.521 300.95 161.734 300.38 162.063L298.289 163.27L308.979 169.442L306.697 170.759ZM317.745 164.381L308.298 158.926L310.456 157.68L312.031 158.589L312.129 158.532C311.756 158.118 311.631 157.705 311.754 157.293C311.877 156.876 312.209 156.511 312.751 156.199C312.874 156.128 313.017 156.052 313.181 155.972C313.345 155.886 313.489 155.82 313.612 155.773L315.66 156.955C315.533 156.991 315.355 157.061 315.125 157.165C314.895 157.264 314.686 157.368 314.497 157.477C314.092 157.712 313.815 157.973 313.667 158.262C313.52 158.546 313.507 158.83 313.63 159.114C313.753 159.399 314.016 159.657 314.418 159.889L319.972 163.095L317.745 164.381ZM328.529 158.368C327.606 158.9 326.604 159.245 325.521 159.401C324.439 159.557 323.346 159.533 322.243 159.327C321.144 159.118 320.106 158.732 319.131 158.169C318.155 157.605 317.484 157.005 317.119 156.368C316.758 155.729 316.713 155.097 316.984 154.472C317.255 153.847 317.851 153.268 318.774 152.736C319.696 152.203 320.699 151.859 321.782 151.702C322.864 151.546 323.957 151.573 325.06 151.784C326.167 151.992 327.209 152.378 328.184 152.942C329.16 153.505 329.827 154.105 330.183 154.742C330.544 155.377 330.589 156.006 330.319 156.631C330.048 157.256 329.452 157.835 328.529 158.368ZM326.757 157.331C327.258 157.042 327.539 156.721 327.6 156.368C327.658 156.013 327.535 155.654 327.231 155.289C326.932 154.922 326.495 154.573 325.921 154.241C325.343 153.908 324.736 153.654 324.1 153.481C323.465 153.304 322.839 153.232 322.224 153.265C321.609 153.298 321.052 153.459 320.551 153.748C320.039 154.044 319.752 154.37 319.69 154.728C319.633 155.083 319.756 155.445 320.059 155.815C320.363 156.179 320.804 156.528 321.382 156.862C321.956 157.194 322.559 157.447 323.19 157.622C323.826 157.795 324.451 157.865 325.066 157.832C325.681 157.794 326.245 157.627 326.757 157.331ZM330.099 146.339L331.821 147.334L326.236 150.558L324.514 149.564L330.099 146.339ZM335.358 154.212L325.018 148.243C324.383 147.876 323.985 147.495 323.825 147.099C323.669 146.701 323.71 146.313 323.948 145.934C324.186 145.556 324.578 145.209 325.123 144.894C325.508 144.671 325.882 144.491 326.242 144.354C326.603 144.217 326.88 144.121 327.073 144.066L328.352 145.316C328.229 145.354 328.081 145.406 327.909 145.473C327.733 145.537 327.557 145.62 327.38 145.721C326.966 145.96 326.773 146.188 326.802 146.403C326.831 146.614 327.03 146.826 327.399 147.039L337.59 152.923L335.358 154.212ZM341.29 150.787L331.843 145.332L334.069 144.047L343.517 149.501L341.29 150.787ZM331.621 143.912C331.269 144.116 330.848 144.223 330.36 144.235C329.868 144.245 329.456 144.153 329.124 143.962C328.788 143.768 328.63 143.53 328.65 143.248C328.667 142.964 328.851 142.72 329.204 142.516C329.561 142.31 329.983 142.204 330.471 142.197C330.959 142.185 331.371 142.276 331.707 142.47C332.039 142.662 332.197 142.9 332.181 143.184C332.165 143.463 331.978 143.706 331.621 143.912ZM335.436 139.621L348.033 146.894L345.806 148.18L333.21 140.907L335.436 139.621ZM354.69 143.264C353.742 143.811 352.727 144.169 351.645 144.34C350.562 144.506 349.474 144.486 348.379 144.28C347.28 144.071 346.236 143.682 345.248 143.111C344.276 142.55 343.608 141.951 343.243 141.314C342.878 140.673 342.825 140.041 343.083 139.418C343.337 138.793 343.916 138.22 344.818 137.699C345.4 137.363 346.044 137.1 346.749 136.911C347.454 136.717 348.201 136.617 348.988 136.613C349.779 136.606 350.591 136.71 351.424 136.925C352.252 137.138 353.08 137.484 353.908 137.962L354.591 138.356L346.847 142.827L345.347 141.961L350.956 138.722C350.526 138.478 350.054 138.312 349.541 138.225C349.025 138.135 348.508 138.128 347.991 138.204C347.479 138.277 347.009 138.437 346.583 138.683C346.128 138.946 345.839 139.24 345.716 139.567C345.589 139.892 345.607 140.212 345.771 140.53C345.935 140.842 346.226 141.121 346.644 141.368L347.954 142.124C348.504 142.441 349.076 142.655 349.671 142.767C350.261 142.876 350.841 142.886 351.411 142.799C351.977 142.709 352.502 142.524 352.986 142.245C353.31 142.058 353.558 141.862 353.73 141.659C353.898 141.453 353.988 141.242 354.001 141.027C354.013 140.811 353.935 140.598 353.767 140.387L356.08 139.322C356.498 139.715 356.728 140.137 356.769 140.586C356.81 141.031 356.658 141.484 356.313 141.943C355.965 142.4 355.424 142.84 354.69 143.264Z" fill="white"/>
</svg>
