<svg width="477" height="375" viewBox="0 0 477 375" fill="none" xmlns="http://www.w3.org/2000/svg">
<rect x="11" y="13" width="216" height="216" rx="8" fill="#EA78FD"/>
<g filter="url(#filter0_d_201_87)">
<rect x="244" y="13" width="216" height="216" rx="8" fill="#13FF8E"/>
</g>
<g filter="url(#filter1_d_201_87)">
<rect x="11" y="242" width="449" height="118" rx="8" fill="white"/>
</g>
<path fill-rule="evenodd" clip-rule="evenodd" d="M83.5 120.327L113.601 137.706C113.925 137.893 114.265 138.028 114.611 138.114V171.819L85.6468 154.678C84.3162 153.891 83.5 152.459 83.5 150.913V120.327ZM153.5 119.865V150.913C153.5 152.459 152.684 153.891 151.353 154.678L122.389 171.819V137.819C122.459 137.783 122.529 137.746 122.599 137.706L153.5 119.865V119.865Z" fill="white"/>
<path opacity="0.3" fill-rule="evenodd" clip-rule="evenodd" d="M84.4455 111.892C84.8132 111.427 85.2772 111.035 85.8183 110.747L116.443 94.4353C117.729 93.7506 119.271 93.7506 120.557 94.4353L151.182 110.747C151.599 110.969 151.97 111.253 152.287 111.584L118.71 130.97C118.489 131.097 118.285 131.243 118.1 131.405C117.914 131.243 117.711 131.097 117.49 130.97L84.4455 111.892Z" fill="white"/>
<rect opacity="0.3" x="65.5" y="294.208" width="24.5833" height="4.91667" rx="1" fill="#7F6DED"/>
<path d="M40.9166 299.125C39.5589 299.125 38.4583 298.024 38.4583 296.667C38.4583 295.309 39.5589 294.208 40.9166 294.208H54.069C56.0121 294.208 57.7728 295.353 58.5619 297.128L67.0976 316.333H90.0833C91.441 316.333 92.5416 317.434 92.5416 318.792C92.5416 320.149 91.441 321.25 90.0833 321.25H67.0976C65.1546 321.25 63.3938 320.106 62.6047 318.33L54.069 299.125H40.9166Z" fill="#7F6DED"/>
<path fill-rule="evenodd" clip-rule="evenodd" d="M322 107.5C321.172 107.5 320.5 108.172 320.5 109V123.5C320.5 124.328 321.172 125 322 125H349.625C350.453 125 351.125 124.328 351.125 123.5V109C351.125 108.172 350.453 107.5 349.625 107.5H322ZM361.375 160C360.547 160 359.875 160.672 359.875 161.5V176C359.875 176.828 360.547 177.5 361.375 177.5H389C389.828 177.5 390.5 176.828 390.5 176V161.5C390.5 160.672 389.828 160 389 160H361.375Z" fill="#2A795D"/>
<path opacity="0.3" fill-rule="evenodd" clip-rule="evenodd" d="M361.375 107.5C360.547 107.5 359.875 108.172 359.875 109V149.75C359.875 150.578 360.547 151.25 361.375 151.25H389C389.828 151.25 390.5 150.578 390.5 149.75V109C390.5 108.172 389.828 107.5 389 107.5H361.375ZM322 133.75C321.172 133.75 320.5 134.422 320.5 135.25V176C320.5 176.828 321.172 177.5 322 177.5H349.625C350.453 177.5 351.125 176.828 351.125 176V135.25C351.125 134.422 350.453 133.75 349.625 133.75H322Z" fill="#2A795D"/>
<path d="M158 53.025C155.883 53.025 154.825 53.7667 154.825 55.25C154.825 56.0167 155.075 56.5667 155.575 56.9C156.075 57.2167 157.175 57.6167 158.875 58.1C160.592 58.5667 161.8 59.1333 162.5 59.8C163.2 60.45 163.55 61.4833 163.55 62.9C163.55 64.7 163.033 66.05 162 66.95C160.983 67.8333 159.592 68.275 157.825 68.275C156.408 68.275 154.842 68.1083 153.125 67.775L152.225 67.6L152.5 65.375C154.75 65.675 156.467 65.825 157.65 65.825C159.717 65.825 160.75 64.9083 160.75 63.075C160.75 62.3583 160.517 61.8333 160.05 61.5C159.583 61.15 158.533 60.775 156.9 60.375C155.267 59.9583 154.05 59.3917 153.25 58.675C152.45 57.9583 152.05 56.825 152.05 55.275C152.05 53.725 152.55 52.5583 153.55 51.775C154.567 50.975 155.967 50.575 157.75 50.575C159.033 50.575 160.55 50.725 162.3 51.025L163.175 51.175L162.95 53.425C160.617 53.1583 158.967 53.025 158 53.025ZM172.474 68H166.549V50.875H172.474C175.108 50.875 176.908 51.5417 177.874 52.875C178.841 54.2083 179.324 56.3 179.324 59.15C179.324 60.6 179.224 61.8333 179.024 62.85C178.841 63.85 178.508 64.7583 178.024 65.575C177.074 67.1917 175.224 68 172.474 68ZM176.449 59.15C176.449 57.0833 176.191 55.5917 175.674 54.675C175.158 53.7583 174.091 53.3 172.474 53.3H169.324V65.55H172.474C174.124 65.55 175.224 64.9417 175.774 63.725C176.041 63.1083 176.216 62.45 176.299 61.75C176.399 61.05 176.449 60.1833 176.449 59.15ZM185.34 68H182.565V50.875H185.34V58.6L187.89 58.4L191.39 50.875H194.565L190.34 59.475L194.74 68H191.515L187.89 60.85L185.34 61.025V68Z" fill="white"/>
<path d="M295.725 68.275C293.225 68.275 291.525 67.5833 290.625 66.2C289.742 64.8167 289.3 62.5417 289.3 59.375C289.3 56.2083 289.75 53.9583 290.65 52.625C291.55 51.275 293.242 50.6 295.725 50.6C297.208 50.6 298.842 50.8083 300.625 51.225L300.525 53.475C299.025 53.2083 297.525 53.075 296.025 53.075C294.525 53.075 293.508 53.525 292.975 54.425C292.442 55.3083 292.175 56.9833 292.175 59.45C292.175 61.9 292.433 63.575 292.95 64.475C293.467 65.3583 294.475 65.8 295.975 65.8C297.475 65.8 298.992 65.675 300.525 65.425L300.6 67.725C298.883 68.0917 297.258 68.275 295.725 68.275ZM303.704 56.85C304.571 55.7667 306.004 55.225 308.004 55.225C310.004 55.225 311.429 55.7667 312.279 56.85C313.146 57.9333 313.579 59.5583 313.579 61.725C313.579 63.8917 313.162 65.525 312.329 66.625C311.496 67.725 310.054 68.275 308.004 68.275C305.954 68.275 304.512 67.725 303.679 66.625C302.846 65.525 302.429 63.8917 302.429 61.725C302.429 59.5583 302.854 57.9333 303.704 56.85ZM305.754 64.975C306.137 65.6417 306.887 65.975 308.004 65.975C309.121 65.975 309.871 65.6417 310.254 64.975C310.637 64.3083 310.829 63.2167 310.829 61.7C310.829 60.1833 310.621 59.1083 310.204 58.475C309.804 57.8417 309.071 57.525 308.004 57.525C306.937 57.525 306.196 57.8417 305.779 58.475C305.379 59.1083 305.179 60.1833 305.179 61.7C305.179 63.2167 305.371 64.3083 305.754 64.975ZM319.011 68H316.286V55.5H318.986V56.275C320.169 55.575 321.252 55.225 322.236 55.225C323.686 55.225 324.744 55.6333 325.411 56.45C326.927 55.6333 328.436 55.225 329.936 55.225C331.436 55.225 332.494 55.6917 333.111 56.625C333.727 57.5417 334.036 59.1 334.036 61.3V68H331.336V61.375C331.336 60.025 331.194 59.0667 330.911 58.5C330.644 57.9333 330.077 57.65 329.211 57.65C328.461 57.65 327.652 57.8167 326.786 58.15L326.361 58.325C326.494 58.6583 326.561 59.725 326.561 61.525V68H323.861V61.575C323.861 60.0917 323.727 59.0667 323.461 58.5C323.194 57.9333 322.611 57.65 321.711 57.65C320.877 57.65 320.102 57.8167 319.386 58.15L319.011 58.3V68ZM337.233 73.375V55.5H339.933V56.275C341.083 55.575 342.158 55.225 343.158 55.225C344.808 55.225 346.016 55.7333 346.783 56.75C347.55 57.75 347.933 59.4417 347.933 61.825C347.933 64.1917 347.491 65.8583 346.608 66.825C345.741 67.7917 344.316 68.275 342.333 68.275C341.65 68.275 340.858 68.2 339.958 68.05V73.375H337.233ZM342.683 57.65C341.9 57.65 341.116 57.825 340.333 58.175L339.958 58.35V65.725C340.625 65.8583 341.358 65.925 342.158 65.925C343.291 65.925 344.075 65.6 344.508 64.95C344.941 64.3 345.158 63.1917 345.158 61.625C345.158 58.975 344.333 57.65 342.683 57.65ZM351.336 56.85C352.202 55.7667 353.636 55.225 355.636 55.225C357.636 55.225 359.061 55.7667 359.911 56.85C360.777 57.9333 361.211 59.5583 361.211 61.725C361.211 63.8917 360.794 65.525 359.961 66.625C359.127 67.725 357.686 68.275 355.636 68.275C353.586 68.275 352.144 67.725 351.311 66.625C350.477 65.525 350.061 63.8917 350.061 61.725C350.061 59.5583 350.486 57.9333 351.336 56.85ZM353.386 64.975C353.769 65.6417 354.519 65.975 355.636 65.975C356.752 65.975 357.502 65.6417 357.886 64.975C358.269 64.3083 358.461 63.2167 358.461 61.7C358.461 60.1833 358.252 59.1083 357.836 58.475C357.436 57.8417 356.702 57.525 355.636 57.525C354.569 57.525 353.827 57.8417 353.411 58.475C353.011 59.1083 352.811 60.1833 352.811 61.7C352.811 63.2167 353.002 64.3083 353.386 64.975ZM366.643 68H363.918V55.5H366.618V56.275C367.834 55.575 368.984 55.225 370.068 55.225C371.734 55.225 372.868 55.7 373.468 56.65C374.084 57.5833 374.393 59.1333 374.393 61.3V68H371.693V61.375C371.693 60.025 371.543 59.0667 371.243 58.5C370.959 57.9333 370.368 57.65 369.468 57.65C368.618 57.65 367.801 57.8167 367.018 58.15L366.643 58.3V68ZM386.465 65.75L387.165 65.675L387.215 67.7C385.315 68.0833 383.632 68.275 382.165 68.275C380.315 68.275 378.982 67.7667 378.165 66.75C377.365 65.7333 376.965 64.1083 376.965 61.875C376.965 57.4417 378.773 55.225 382.39 55.225C385.89 55.225 387.64 57.1333 387.64 60.95L387.465 62.9H379.715C379.732 63.9333 379.957 64.6917 380.39 65.175C380.823 65.6583 381.632 65.9 382.815 65.9C383.998 65.9 385.215 65.85 386.465 65.75ZM384.965 60.8C384.965 59.5667 384.765 58.7083 384.365 58.225C383.982 57.725 383.323 57.475 382.39 57.475C381.457 57.475 380.773 57.7333 380.34 58.25C379.923 58.7667 379.707 59.6167 379.69 60.8H384.965ZM392.985 68H390.26V55.5H392.96V56.275C394.177 55.575 395.327 55.225 396.41 55.225C398.077 55.225 399.21 55.7 399.81 56.65C400.427 57.5833 400.735 59.1333 400.735 61.3V68H398.035V61.375C398.035 60.025 397.885 59.0667 397.585 58.5C397.302 57.9333 396.71 57.65 395.81 57.65C394.96 57.65 394.144 57.8167 393.36 58.15L392.985 58.3V68ZM410.633 57.825H407.183V63.325C407.183 64.3417 407.258 65.0167 407.408 65.35C407.558 65.6833 407.941 65.85 408.558 65.85L410.608 65.775L410.733 67.95C409.616 68.1667 408.766 68.275 408.183 68.275C406.766 68.275 405.791 67.95 405.258 67.3C404.741 66.65 404.483 65.425 404.483 63.625V57.825H402.883V55.5H404.483V51.875H407.183V55.5H410.633V57.825ZM421.543 58.075C419.576 57.8083 418.151 57.675 417.268 57.675C416.384 57.675 415.768 57.7833 415.418 58C415.084 58.2 414.918 58.525 414.918 58.975C414.918 59.425 415.101 59.7417 415.468 59.925C415.851 60.1083 416.734 60.325 418.118 60.575C419.518 60.8083 420.509 61.1833 421.093 61.7C421.676 62.2167 421.968 63.1333 421.968 64.45C421.968 65.7667 421.543 66.7333 420.693 67.35C419.859 67.9667 418.634 68.275 417.018 68.275C416.001 68.275 414.718 68.1333 413.168 67.85L412.393 67.725L412.493 65.45C414.493 65.7167 415.934 65.85 416.818 65.85C417.701 65.85 418.326 65.7417 418.693 65.525C419.076 65.3083 419.268 64.95 419.268 64.45C419.268 63.95 419.084 63.6083 418.718 63.425C418.368 63.225 417.509 63.0167 416.143 62.8C414.793 62.5667 413.801 62.2083 413.168 61.725C412.534 61.2417 412.218 60.3583 412.218 59.075C412.218 57.7917 412.651 56.8333 413.518 56.2C414.401 55.5667 415.526 55.25 416.893 55.25C417.959 55.25 419.268 55.3833 420.818 55.65L421.593 55.8L421.543 58.075Z" fill="#372626" fill-opacity="0.64"/>
<path d="M296.25 271.675H292.75V277H289.975V259.875H296.25C300.133 259.875 302.075 261.792 302.075 265.625C302.075 267.592 301.583 269.092 300.6 270.125C299.633 271.158 298.183 271.675 296.25 271.675ZM292.75 269.275H296.225C298.225 269.275 299.225 268.058 299.225 265.625C299.225 264.458 298.983 263.608 298.5 263.075C298.017 262.542 297.258 262.275 296.225 262.275H292.75V269.275ZM305.096 265.85C305.962 264.767 307.396 264.225 309.396 264.225C311.396 264.225 312.821 264.767 313.671 265.85C314.537 266.933 314.971 268.558 314.971 270.725C314.971 272.892 314.554 274.525 313.721 275.625C312.887 276.725 311.446 277.275 309.396 277.275C307.346 277.275 305.904 276.725 305.071 275.625C304.237 274.525 303.821 272.892 303.821 270.725C303.821 268.558 304.246 266.933 305.096 265.85ZM307.146 273.975C307.529 274.642 308.279 274.975 309.396 274.975C310.512 274.975 311.262 274.642 311.646 273.975C312.029 273.308 312.221 272.217 312.221 270.7C312.221 269.183 312.012 268.108 311.596 267.475C311.196 266.842 310.462 266.525 309.396 266.525C308.329 266.525 307.587 266.842 307.171 267.475C306.771 268.108 306.571 269.183 306.571 270.7C306.571 272.217 306.762 273.308 307.146 273.975ZM316.702 264.5H319.377L321.352 274.675H321.852L324.227 264.75H327.027L329.402 274.675H329.902L331.852 264.5H334.552L331.902 277H327.577L325.627 268.425L323.677 277H319.352L316.702 264.5ZM345.767 274.75L346.467 274.675L346.517 276.7C344.617 277.083 342.933 277.275 341.467 277.275C339.617 277.275 338.283 276.767 337.467 275.75C336.667 274.733 336.267 273.108 336.267 270.875C336.267 266.442 338.075 264.225 341.692 264.225C345.192 264.225 346.942 266.133 346.942 269.95L346.767 271.9H339.017C339.033 272.933 339.258 273.692 339.692 274.175C340.125 274.658 340.933 274.9 342.117 274.9C343.3 274.9 344.517 274.85 345.767 274.75ZM344.267 269.8C344.267 268.567 344.067 267.708 343.667 267.225C343.283 266.725 342.625 266.475 341.692 266.475C340.758 266.475 340.075 266.733 339.642 267.25C339.225 267.767 339.008 268.617 338.992 269.8H344.267ZM349.562 277V264.5H352.262V266C353.679 265.083 355.095 264.492 356.512 264.225V266.95C355.079 267.233 353.854 267.6 352.837 268.05L352.287 268.275V277H349.562ZM361.87 266.825V277H359.17V266.825H357.72V264.5H359.17V263.7C359.17 261.917 359.429 260.692 359.945 260.025C360.462 259.358 361.379 259.025 362.695 259.025L365.395 259.275L365.37 261.5C364.554 261.467 363.87 261.45 363.32 261.45C362.787 261.45 362.412 261.617 362.195 261.95C361.979 262.267 361.87 262.858 361.87 263.725V264.5H365.17V266.825H361.87ZM374.813 264.5H377.513V277H374.813V276.225C373.596 276.925 372.471 277.275 371.438 277.275C369.721 277.275 368.571 276.817 367.988 275.9C367.405 274.967 367.113 273.342 367.113 271.025V264.5H369.838V271.05C369.838 272.55 369.963 273.558 370.213 274.075C370.463 274.592 371.046 274.85 371.963 274.85C372.863 274.85 373.688 274.683 374.438 274.35L374.813 274.2V264.5ZM380.962 277V259.3H383.687V277H380.962ZM391.479 277L395.704 259.875H401.229L405.479 277H402.679L401.754 273.325H395.179L394.254 277H391.479ZM397.854 262.2L395.729 270.875H401.204L399.104 262.2H397.854ZM414.194 271.675H410.694V277H407.919V259.875H414.194C418.078 259.875 420.019 261.792 420.019 265.625C420.019 267.592 419.528 269.092 418.544 270.125C417.578 271.158 416.128 271.675 414.194 271.675ZM410.694 269.275H414.169C416.169 269.275 417.169 268.058 417.169 265.625C417.169 264.458 416.928 263.608 416.444 263.075C415.961 262.542 415.203 262.275 414.169 262.275H410.694V269.275ZM422.69 277V259.875H425.465V277H422.69ZM437.754 267.075C435.787 266.808 434.362 266.675 433.479 266.675C432.595 266.675 431.979 266.783 431.629 267C431.295 267.2 431.129 267.525 431.129 267.975C431.129 268.425 431.312 268.742 431.679 268.925C432.062 269.108 432.945 269.325 434.329 269.575C435.729 269.808 436.72 270.183 437.304 270.7C437.887 271.217 438.179 272.133 438.179 273.45C438.179 274.767 437.754 275.733 436.904 276.35C436.07 276.967 434.845 277.275 433.229 277.275C432.212 277.275 430.929 277.133 429.379 276.85L428.604 276.725L428.704 274.45C430.704 274.717 432.145 274.85 433.029 274.85C433.912 274.85 434.537 274.742 434.904 274.525C435.287 274.308 435.479 273.95 435.479 273.45C435.479 272.95 435.295 272.608 434.929 272.425C434.579 272.225 433.72 272.017 432.354 271.8C431.004 271.567 430.012 271.208 429.379 270.725C428.745 270.242 428.429 269.358 428.429 268.075C428.429 266.792 428.862 265.833 429.729 265.2C430.612 264.567 431.737 264.25 433.104 264.25C434.17 264.25 435.479 264.383 437.029 264.65L437.804 264.8L437.754 267.075Z" fill="#1E293B"/>
<defs>
<filter id="filter0_d_201_87" x="227" y="0" width="250" height="250" filterUnits="userSpaceOnUse" color-interpolation-filters="sRGB">
<feFlood flood-opacity="0" result="BackgroundImageFix"/>
<feColorMatrix in="SourceAlpha" type="matrix" values="0 0 0 0 0 0 0 0 0 0 0 0 0 0 0 0 0 0 127 0" result="hardAlpha"/>
<feOffset dy="4"/>
<feGaussianBlur stdDeviation="8.5"/>
<feComposite in2="hardAlpha" operator="out"/>
<feColorMatrix type="matrix" values="0 0 0 0 0 0 0 0 0 0 0 0 0 0 0 0 0 0 0.06 0"/>
<feBlend mode="normal" in2="BackgroundImageFix" result="effect1_dropShadow_201_87"/>
<feBlend mode="normal" in="SourceGraphic" in2="effect1_dropShadow_201_87" result="shape"/>
</filter>
<filter id="filter1_d_201_87" x="0" y="235" width="471" height="140" filterUnits="userSpaceOnUse" color-interpolation-filters="sRGB">
<feFlood flood-opacity="0" result="BackgroundImageFix"/>
<feColorMatrix in="SourceAlpha" type="matrix" values="0 0 0 0 0 0 0 0 0 0 0 0 0 0 0 0 0 0 127 0" result="hardAlpha"/>
<feOffset dy="4"/>
<feGaussianBlur stdDeviation="5.5"/>
<feComposite in2="hardAlpha" operator="out"/>
<feColorMatrix type="matrix" values="0 0 0 0 0 0 0 0 0 0 0 0 0 0 0 0 0 0 0.1 0"/>
<feBlend mode="normal" in2="BackgroundImageFix" result="effect1_dropShadow_201_87"/>
<feBlend mode="normal" in="SourceGraphic" in2="effect1_dropShadow_201_87" result="shape"/>
</filter>
</defs>
</svg>
